<?xml version="1.0" encoding="UTF-8" standalone="no"?>
<!DOCTYPE svg PUBLIC "-//W3C//DTD SVG 1.1//EN"
 "http://www.w3.org/Graphics/SVG/1.1/DTD/svg11.dtd">
<!-- Generated by graphviz version 2.47.3 (20210619.1520)
 -->
<!-- Title: dependencies Pages: 1 -->
<svg width="609pt" height="174pt"
 viewBox="0.00 0.00 609.00 173.80" xmlns="http://www.w3.org/2000/svg" xmlns:xlink="http://www.w3.org/1999/xlink">
<g id="graph0" class="graph" transform="scale(1 1) rotate(0) translate(4 169.8)">
<title>dependencies</title>
<polygon fill="white" stroke="transparent" points="-4,4 -4,-169.8 605,-169.8 605,4 -4,4"/>
<text text-anchor="middle" x="300.5" y="-8.2" font-family="sans-serif" font-size="14.00">dependencies</text>
<g id="clust1" class="cluster">
<title>cluster_MarketAdvancedModule</title>
<polygon fill="none" stroke="black" stroke-dasharray="1,5" points="8,-32.8 8,-157.8 593,-157.8 593,-32.8 8,-32.8"/>
</g>
<g id="clust5" class="cluster">
<title>cluster_MarketAdvancedModule_imports</title>
<polygon fill="none" stroke="black" points="471,-40.8 471,-92.8 585,-92.8 585,-40.8 471,-40.8"/>
</g>
<g id="clust2" class="cluster">
<title>cluster_MarketAdvancedModule_declarations</title>
<polygon fill="none" stroke="black" points="16,-40.8 16,-92.8 463,-92.8 463,-40.8 16,-40.8"/>
</g>
<!-- MarketAdvancedDetailComponent -->
<g id="node1" class="node">
<title>MarketAdvancedDetailComponent</title>
<polygon fill="#ffffb3" stroke="black" points="455.22,-84.8 242.78,-84.8 242.78,-48.8 455.22,-48.8 455.22,-84.8"/>
<text text-anchor="middle" x="349" y="-62.6" font-family="Times,serif" font-size="14.00">MarketAdvancedDetailComponent</text>
</g>
<!-- MarketAdvancedModule -->
<g id="node3" class="node">
<title>MarketAdvancedModule</title>
<polygon fill="#8dd3c7" stroke="black" points="427.23,-149.8 424.23,-153.8 403.23,-153.8 400.23,-149.8 270.77,-149.8 270.77,-113.8 427.23,-113.8 427.23,-149.8"/>
<text text-anchor="middle" x="349" y="-127.6" font-family="Times,serif" font-size="14.00">MarketAdvancedModule</text>
</g>
<!-- MarketAdvancedDetailComponent&#45;&gt;MarketAdvancedModule -->
<g id="edge1" class="edge">
<title>MarketAdvancedDetailComponent&#45;&gt;MarketAdvancedModule</title>
<path fill="none" stroke="black" d="M349,-84.91C349,-84.91 349,-103.79 349,-103.79"/>
<polygon fill="black" stroke="black" points="345.5,-103.79 349,-113.79 352.5,-103.79 345.5,-103.79"/>
</g>
<!-- MarketAdvancedListComponent -->
<g id="node2" class="node">
<title>MarketAdvancedListComponent</title>
<polygon fill="#ffffb3" stroke="black" points="224.29,-84.8 23.71,-84.8 23.71,-48.8 224.29,-48.8 224.29,-84.8"/>
<text text-anchor="middle" x="124" y="-62.6" font-family="Times,serif" font-size="14.00">MarketAdvancedListComponent</text>
</g>
<!-- MarketAdvancedListComponent&#45;&gt;MarketAdvancedModule -->
<g id="edge2" class="edge">
<title>MarketAdvancedListComponent&#45;&gt;MarketAdvancedModule</title>
<path fill="none" stroke="black" d="M124,-84.91C124,-104.14 124,-131.8 124,-131.8 124,-131.8 260.62,-131.8 260.62,-131.8"/>
<polygon fill="black" stroke="black" points="260.62,-135.3 270.62,-131.8 260.62,-128.3 260.62,-135.3"/>
</g>
<!-- SharedModule -->
<g id="node4" class="node">
<title>SharedModule</title>
<polygon fill="#8dd3c7" stroke="black" points="577.42,-84.8 574.42,-88.8 553.42,-88.8 550.42,-84.8 478.58,-84.8 478.58,-48.8 577.42,-48.8 577.42,-84.8"/>
<text text-anchor="middle" x="528" y="-62.6" font-family="Times,serif" font-size="14.00">SharedModule</text>
</g>
<!-- SharedModule&#45;&gt;MarketAdvancedModule -->
<g id="edge3" class="edge">
<title>SharedModule&#45;&gt;MarketAdvancedModule</title>
<path fill="none" stroke="black" d="M528,-84.91C528,-104.14 528,-131.8 528,-131.8 528,-131.8 437.25,-131.8 437.25,-131.8"/>
<polygon fill="black" stroke="black" points="437.25,-128.3 427.25,-131.8 437.25,-135.3 437.25,-128.3"/>
</g>
</g>
</svg>
