<?xml version="1.0" encoding="UTF-8" standalone="no"?>
<!DOCTYPE svg PUBLIC "-//W3C//DTD SVG 1.1//EN"
 "http://www.w3.org/Graphics/SVG/1.1/DTD/svg11.dtd">
<!-- Generated by graphviz version 2.47.3 (20210619.1520)
 -->
<!-- Title: dependencies Pages: 1 -->
<svg width="1611pt" height="174pt"
 viewBox="0.00 0.00 1611.00 173.80" xmlns="http://www.w3.org/2000/svg" xmlns:xlink="http://www.w3.org/1999/xlink">
<g id="graph0" class="graph" transform="scale(1 1) rotate(0) translate(4 169.8)">
<title>dependencies</title>
<polygon fill="white" stroke="transparent" points="-4,4 -4,-169.8 1607,-169.8 1607,4 -4,4"/>
<text text-anchor="middle" x="801.5" y="-8.2" font-family="sans-serif" font-size="14.00">dependencies</text>
<g id="clust1" class="cluster">
<title>cluster_TennisTournamentModule</title>
<polygon fill="none" stroke="black" stroke-dasharray="1,5" points="8,-32.8 8,-157.8 1595,-157.8 1595,-32.8 8,-32.8"/>
</g>
<g id="clust2" class="cluster">
<title>cluster_TennisTournamentModule_declarations</title>
<polygon fill="none" stroke="black" points="282,-40.8 282,-92.8 1587,-92.8 1587,-40.8 282,-40.8"/>
</g>
<g id="clust8" class="cluster">
<title>cluster_TennisTournamentModule_imports</title>
<polygon fill="none" stroke="black" points="16,-40.8 16,-92.8 274,-92.8 274,-40.8 16,-40.8"/>
</g>
<!-- TennisTournamentCreateModalComponent -->
<g id="node1" class="node">
<title>TennisTournamentCreateModalComponent</title>
<polygon fill="#ffffb3" stroke="black" points="1579.44,-84.8 1318.56,-84.8 1318.56,-48.8 1579.44,-48.8 1579.44,-84.8"/>
<text text-anchor="middle" x="1449" y="-62.6" font-family="Times,serif" font-size="14.00">TennisTournamentCreateModalComponent</text>
</g>
<!-- TennisTournamentModule -->
<g id="node6" class="node">
<title>TennisTournamentModule</title>
<polygon fill="#8dd3c7" stroke="black" points="770.08,-149.8 767.08,-153.8 746.08,-153.8 743.08,-149.8 603.92,-149.8 603.92,-113.8 770.08,-113.8 770.08,-149.8"/>
<text text-anchor="middle" x="687" y="-127.6" font-family="Times,serif" font-size="14.00">TennisTournamentModule</text>
</g>
<!-- TennisTournamentCreateModalComponent&#45;&gt;TennisTournamentModule -->
<g id="edge1" class="edge">
<title>TennisTournamentCreateModalComponent&#45;&gt;TennisTournamentModule</title>
<path fill="none" stroke="black" d="M1449,-85.09C1449,-107.01 1449,-140.8 1449,-140.8 1449,-140.8 780.36,-140.8 780.36,-140.8"/>
<polygon fill="black" stroke="black" points="780.36,-137.3 770.36,-140.8 780.36,-144.3 780.36,-137.3"/>
</g>
<!-- TennisTournamentDataTableComponent -->
<g id="node2" class="node">
<title>TennisTournamentDataTableComponent</title>
<polygon fill="#ffffb3" stroke="black" points="1300.16,-84.8 1053.84,-84.8 1053.84,-48.8 1300.16,-48.8 1300.16,-84.8"/>
<text text-anchor="middle" x="1177" y="-62.6" font-family="Times,serif" font-size="14.00">TennisTournamentDataTableComponent</text>
</g>
<!-- TennisTournamentDataTableComponent&#45;&gt;TennisTournamentModule -->
<g id="edge2" class="edge">
<title>TennisTournamentDataTableComponent&#45;&gt;TennisTournamentModule</title>
<path fill="none" stroke="black" d="M1177,-84.91C1177,-104.14 1177,-131.8 1177,-131.8 1177,-131.8 780.12,-131.8 780.12,-131.8"/>
<polygon fill="black" stroke="black" points="780.12,-128.3 770.12,-131.8 780.12,-135.3 780.12,-128.3"/>
</g>
<!-- TennisTournamentDetailComponent -->
<g id="node3" class="node">
<title>TennisTournamentDetailComponent</title>
<polygon fill="#ffffb3" stroke="black" points="1036.07,-84.8 813.93,-84.8 813.93,-48.8 1036.07,-48.8 1036.07,-84.8"/>
<text text-anchor="middle" x="925" y="-62.6" font-family="Times,serif" font-size="14.00">TennisTournamentDetailComponent</text>
</g>
<!-- TennisTournamentDetailComponent&#45;&gt;TennisTournamentModule -->
<g id="edge3" class="edge">
<title>TennisTournamentDetailComponent&#45;&gt;TennisTournamentModule</title>
<path fill="none" stroke="black" d="M925,-84.83C925,-101.2 925,-122.8 925,-122.8 925,-122.8 780.24,-122.8 780.24,-122.8"/>
<polygon fill="black" stroke="black" points="780.24,-119.3 770.24,-122.8 780.24,-126.3 780.24,-119.3"/>
</g>
<!-- TennisTournamentMainComponent -->
<g id="node4" class="node">
<title>TennisTournamentMainComponent</title>
<polygon fill="#ffffb3" stroke="black" points="795.91,-84.8 578.09,-84.8 578.09,-48.8 795.91,-48.8 795.91,-84.8"/>
<text text-anchor="middle" x="687" y="-62.6" font-family="Times,serif" font-size="14.00">TennisTournamentMainComponent</text>
</g>
<!-- TennisTournamentMainComponent&#45;&gt;TennisTournamentModule -->
<g id="edge4" class="edge">
<title>TennisTournamentMainComponent&#45;&gt;TennisTournamentModule</title>
<path fill="none" stroke="black" d="M687,-84.91C687,-84.91 687,-103.79 687,-103.79"/>
<polygon fill="black" stroke="black" points="683.5,-103.79 687,-113.79 690.5,-103.79 683.5,-103.79"/>
</g>
<!-- TennisTournamentUpdatesModalComponent -->
<g id="node5" class="node">
<title>TennisTournamentUpdatesModalComponent</title>
<polygon fill="#ffffb3" stroke="black" points="560.28,-84.8 289.72,-84.8 289.72,-48.8 560.28,-48.8 560.28,-84.8"/>
<text text-anchor="middle" x="425" y="-62.6" font-family="Times,serif" font-size="14.00">TennisTournamentUpdatesModalComponent</text>
</g>
<!-- TennisTournamentUpdatesModalComponent&#45;&gt;TennisTournamentModule -->
<g id="edge5" class="edge">
<title>TennisTournamentUpdatesModalComponent&#45;&gt;TennisTournamentModule</title>
<path fill="none" stroke="black" d="M425,-84.83C425,-101.2 425,-122.8 425,-122.8 425,-122.8 593.74,-122.8 593.74,-122.8"/>
<polygon fill="black" stroke="black" points="593.74,-126.3 603.74,-122.8 593.74,-119.3 593.74,-126.3"/>
</g>
<!-- FeahterIconModule -->
<g id="node7" class="node">
<title>FeahterIconModule</title>
<polygon fill="#8dd3c7" stroke="black" points="266.4,-84.8 263.4,-88.8 242.4,-88.8 239.4,-84.8 139.6,-84.8 139.6,-48.8 266.4,-48.8 266.4,-84.8"/>
<text text-anchor="middle" x="203" y="-62.6" font-family="Times,serif" font-size="14.00">FeahterIconModule</text>
</g>
<!-- FeahterIconModule&#45;&gt;TennisTournamentModule -->
<g id="edge6" class="edge">
<title>FeahterIconModule&#45;&gt;TennisTournamentModule</title>
<path fill="none" stroke="black" d="M203,-84.91C203,-104.14 203,-131.8 203,-131.8 203,-131.8 593.8,-131.8 593.8,-131.8"/>
<polygon fill="black" stroke="black" points="593.8,-135.3 603.8,-131.8 593.8,-128.3 593.8,-135.3"/>
</g>
<!-- SharedModule -->
<g id="node8" class="node">
<title>SharedModule</title>
<polygon fill="#8dd3c7" stroke="black" points="122.42,-84.8 119.42,-88.8 98.42,-88.8 95.42,-84.8 23.58,-84.8 23.58,-48.8 122.42,-48.8 122.42,-84.8"/>
<text text-anchor="middle" x="73" y="-62.6" font-family="Times,serif" font-size="14.00">SharedModule</text>
</g>
<!-- SharedModule&#45;&gt;TennisTournamentModule -->
<g id="edge7" class="edge">
<title>SharedModule&#45;&gt;TennisTournamentModule</title>
<path fill="none" stroke="black" d="M73,-85.09C73,-107.01 73,-140.8 73,-140.8 73,-140.8 593.87,-140.8 593.87,-140.8"/>
<polygon fill="black" stroke="black" points="593.87,-144.3 603.87,-140.8 593.87,-137.3 593.87,-144.3"/>
</g>
</g>
</svg>
