<?xml version="1.0" encoding="UTF-8" standalone="no"?>
<!DOCTYPE svg PUBLIC "-//W3C//DTD SVG 1.1//EN"
 "http://www.w3.org/Graphics/SVG/1.1/DTD/svg11.dtd">
<!-- Generated by graphviz version 2.47.3 (20210619.1520)
 -->
<!-- Title: dependencies Pages: 1 -->
<svg width="3021pt" height="174pt"
 viewBox="0.00 0.00 3021.00 173.80" xmlns="http://www.w3.org/2000/svg" xmlns:xlink="http://www.w3.org/1999/xlink">
<g id="graph0" class="graph" transform="scale(1 1) rotate(0) translate(4 169.8)">
<title>dependencies</title>
<polygon fill="white" stroke="transparent" points="-4,4 -4,-169.8 3017,-169.8 3017,4 -4,4"/>
<text text-anchor="middle" x="1506.5" y="-8.2" font-family="sans-serif" font-size="14.00">dependencies</text>
<g id="clust1" class="cluster">
<title>cluster_RunnersModule</title>
<polygon fill="none" stroke="black" stroke-dasharray="1,5" points="8,-32.8 8,-157.8 3005,-157.8 3005,-32.8 8,-32.8"/>
</g>
<g id="clust2" class="cluster">
<title>cluster_RunnersModule_declarations</title>
<polygon fill="none" stroke="black" points="282,-40.8 282,-92.8 2997,-92.8 2997,-40.8 282,-40.8"/>
</g>
<g id="clust15" class="cluster">
<title>cluster_RunnersModule_imports</title>
<polygon fill="none" stroke="black" points="16,-40.8 16,-92.8 274,-92.8 274,-40.8 16,-40.8"/>
</g>
<!-- RunnerDetailBspComponent -->
<g id="node1" class="node">
<title>RunnerDetailBspComponent</title>
<polygon fill="#ffffb3" stroke="black" points="2989.03,-84.8 2810.97,-84.8 2810.97,-48.8 2989.03,-48.8 2989.03,-84.8"/>
<text text-anchor="middle" x="2900" y="-62.6" font-family="Times,serif" font-size="14.00">RunnerDetailBspComponent</text>
</g>
<!-- RunnersModule -->
<g id="node13" class="node">
<title>RunnersModule</title>
<polygon fill="#8dd3c7" stroke="black" points="1321.21,-149.8 1318.21,-153.8 1297.21,-153.8 1294.21,-149.8 1214.79,-149.8 1214.79,-113.8 1321.21,-113.8 1321.21,-149.8"/>
<text text-anchor="middle" x="1268" y="-127.6" font-family="Times,serif" font-size="14.00">RunnersModule</text>
</g>
<!-- RunnerDetailBspComponent&#45;&gt;RunnersModule -->
<g id="edge1" class="edge">
<title>RunnerDetailBspComponent&#45;&gt;RunnersModule</title>
<path fill="none" stroke="black" d="M2900,-84.89C2900,-107.93 2900,-144.8 2900,-144.8 2900,-144.8 1331.37,-144.8 1331.37,-144.8"/>
<polygon fill="black" stroke="black" points="1331.37,-141.3 1321.37,-144.8 1331.37,-148.3 1331.37,-141.3"/>
</g>
<!-- RunnerDetailInfoComponent -->
<g id="node2" class="node">
<title>RunnerDetailInfoComponent</title>
<polygon fill="#ffffb3" stroke="black" points="2793.07,-84.8 2612.93,-84.8 2612.93,-48.8 2793.07,-48.8 2793.07,-84.8"/>
<text text-anchor="middle" x="2703" y="-62.6" font-family="Times,serif" font-size="14.00">RunnerDetailInfoComponent</text>
</g>
<!-- RunnerDetailInfoComponent&#45;&gt;RunnersModule -->
<g id="edge2" class="edge">
<title>RunnerDetailInfoComponent&#45;&gt;RunnersModule</title>
<path fill="none" stroke="black" d="M2703,-84.84C2703,-106.46 2703,-139.8 2703,-139.8 2703,-139.8 1331.2,-139.8 1331.2,-139.8"/>
<polygon fill="black" stroke="black" points="1331.2,-136.3 1321.2,-139.8 1331.2,-143.3 1331.2,-136.3"/>
</g>
<!-- RunnerDetailMarketStatsComponent -->
<g id="node3" class="node">
<title>RunnerDetailMarketStatsComponent</title>
<polygon fill="#ffffb3" stroke="black" points="2595.4,-84.8 2370.6,-84.8 2370.6,-48.8 2595.4,-48.8 2595.4,-84.8"/>
<text text-anchor="middle" x="2483" y="-62.6" font-family="Times,serif" font-size="14.00">RunnerDetailMarketStatsComponent</text>
</g>
<!-- RunnerDetailMarketStatsComponent&#45;&gt;RunnersModule -->
<g id="edge3" class="edge">
<title>RunnerDetailMarketStatsComponent&#45;&gt;RunnersModule</title>
<path fill="none" stroke="black" d="M2483,-85.02C2483,-105.17 2483,-134.8 2483,-134.8 2483,-134.8 1331.38,-134.8 1331.38,-134.8"/>
<polygon fill="black" stroke="black" points="1331.38,-131.3 1321.38,-134.8 1331.38,-138.3 1331.38,-131.3"/>
</g>
<!-- RunnerDetailMarketStatsDistributionComponent -->
<g id="node4" class="node">
<title>RunnerDetailMarketStatsDistributionComponent</title>
<polygon fill="#ffffb3" stroke="black" points="2353.06,-84.8 2060.94,-84.8 2060.94,-48.8 2353.06,-48.8 2353.06,-84.8"/>
<text text-anchor="middle" x="2207" y="-62.6" font-family="Times,serif" font-size="14.00">RunnerDetailMarketStatsDistributionComponent</text>
</g>
<!-- RunnerDetailMarketStatsDistributionComponent&#45;&gt;RunnersModule -->
<g id="edge4" class="edge">
<title>RunnerDetailMarketStatsDistributionComponent&#45;&gt;RunnersModule</title>
<path fill="none" stroke="black" d="M2207,-85.02C2207,-103.63 2207,-129.8 2207,-129.8 2207,-129.8 1331.18,-129.8 1331.18,-129.8"/>
<polygon fill="black" stroke="black" points="1331.18,-126.3 1321.18,-129.8 1331.18,-133.3 1331.18,-126.3"/>
</g>
<!-- RunnerDetailMarketStatsGaussianComponent -->
<g id="node5" class="node">
<title>RunnerDetailMarketStatsGaussianComponent</title>
<polygon fill="#ffffb3" stroke="black" points="2042.72,-84.8 1767.28,-84.8 1767.28,-48.8 2042.72,-48.8 2042.72,-84.8"/>
<text text-anchor="middle" x="1905" y="-62.6" font-family="Times,serif" font-size="14.00">RunnerDetailMarketStatsGaussianComponent</text>
</g>
<!-- RunnerDetailMarketStatsGaussianComponent&#45;&gt;RunnersModule -->
<g id="edge5" class="edge">
<title>RunnerDetailMarketStatsGaussianComponent&#45;&gt;RunnersModule</title>
<path fill="none" stroke="black" d="M1905,-84.83C1905,-101.86 1905,-124.8 1905,-124.8 1905,-124.8 1331.21,-124.8 1331.21,-124.8"/>
<polygon fill="black" stroke="black" points="1331.21,-121.3 1321.21,-124.8 1331.21,-128.3 1331.21,-121.3"/>
</g>
<!-- RunnerDetailMarketStatsViewComponent -->
<g id="node6" class="node">
<title>RunnerDetailMarketStatsViewComponent</title>
<polygon fill="#ffffb3" stroke="black" points="1749.22,-84.8 1494.78,-84.8 1494.78,-48.8 1749.22,-48.8 1749.22,-84.8"/>
<text text-anchor="middle" x="1622" y="-62.6" font-family="Times,serif" font-size="14.00">RunnerDetailMarketStatsViewComponent</text>
</g>
<!-- RunnerDetailMarketStatsViewComponent&#45;&gt;RunnersModule -->
<g id="edge6" class="edge">
<title>RunnerDetailMarketStatsViewComponent&#45;&gt;RunnersModule</title>
<path fill="none" stroke="black" d="M1622,-85.04C1622,-100.37 1622,-119.8 1622,-119.8 1622,-119.8 1331.38,-119.8 1331.38,-119.8"/>
<polygon fill="black" stroke="black" points="1331.38,-116.3 1321.38,-119.8 1331.38,-123.3 1331.38,-116.3"/>
</g>
<!-- RunnerDetailMarketsComponent -->
<g id="node7" class="node">
<title>RunnerDetailMarketsComponent</title>
<polygon fill="#ffffb3" stroke="black" points="1476.12,-84.8 1273.88,-84.8 1273.88,-48.8 1476.12,-48.8 1476.12,-84.8"/>
<text text-anchor="middle" x="1375" y="-62.6" font-family="Times,serif" font-size="14.00">RunnerDetailMarketsComponent</text>
</g>
<!-- RunnerDetailMarketsComponent&#45;&gt;RunnersModule -->
<g id="edge7" class="edge">
<title>RunnerDetailMarketsComponent&#45;&gt;RunnersModule</title>
<path fill="none" stroke="black" d="M1297.4,-84.91C1297.4,-84.91 1297.4,-103.79 1297.4,-103.79"/>
<polygon fill="black" stroke="black" points="1293.9,-103.79 1297.4,-113.79 1300.9,-103.79 1293.9,-103.79"/>
</g>
<!-- RunnerDetailNotesComponent -->
<g id="node8" class="node">
<title>RunnerDetailNotesComponent</title>
<polygon fill="#ffffb3" stroke="black" points="1255.91,-84.8 1066.09,-84.8 1066.09,-48.8 1255.91,-48.8 1255.91,-84.8"/>
<text text-anchor="middle" x="1161" y="-62.6" font-family="Times,serif" font-size="14.00">RunnerDetailNotesComponent</text>
</g>
<!-- RunnerDetailNotesComponent&#45;&gt;RunnersModule -->
<g id="edge8" class="edge">
<title>RunnerDetailNotesComponent&#45;&gt;RunnersModule</title>
<path fill="none" stroke="black" d="M1235.3,-84.91C1235.3,-84.91 1235.3,-103.79 1235.3,-103.79"/>
<polygon fill="black" stroke="black" points="1231.8,-103.79 1235.3,-113.79 1238.8,-103.79 1231.8,-103.79"/>
</g>
<!-- RunnerDetailStatsComponent -->
<g id="node9" class="node">
<title>RunnerDetailStatsComponent</title>
<polygon fill="#ffffb3" stroke="black" points="1047.97,-84.8 864.03,-84.8 864.03,-48.8 1047.97,-48.8 1047.97,-84.8"/>
<text text-anchor="middle" x="956" y="-62.6" font-family="Times,serif" font-size="14.00">RunnerDetailStatsComponent</text>
</g>
<!-- RunnerDetailStatsComponent&#45;&gt;RunnersModule -->
<g id="edge9" class="edge">
<title>RunnerDetailStatsComponent&#45;&gt;RunnersModule</title>
<path fill="none" stroke="black" d="M956,-85.04C956,-100.37 956,-119.8 956,-119.8 956,-119.8 1204.72,-119.8 1204.72,-119.8"/>
<polygon fill="black" stroke="black" points="1204.72,-123.3 1214.72,-119.8 1204.72,-116.3 1204.72,-123.3"/>
</g>
<!-- RunnersDataTableComponentList -->
<g id="node10" class="node">
<title>RunnersDataTableComponentList</title>
<polygon fill="#ffffb3" stroke="black" points="846.07,-84.8 637.93,-84.8 637.93,-48.8 846.07,-48.8 846.07,-84.8"/>
<text text-anchor="middle" x="742" y="-62.6" font-family="Times,serif" font-size="14.00">RunnersDataTableComponentList</text>
</g>
<!-- RunnersDataTableComponentList&#45;&gt;RunnersModule -->
<g id="edge10" class="edge">
<title>RunnersDataTableComponentList&#45;&gt;RunnersModule</title>
<path fill="none" stroke="black" d="M742,-84.83C742,-101.86 742,-124.8 742,-124.8 742,-124.8 1204.67,-124.8 1204.67,-124.8"/>
<polygon fill="black" stroke="black" points="1204.67,-128.3 1214.67,-124.8 1204.67,-121.3 1204.67,-128.3"/>
</g>
<!-- RunnersDetailComponent -->
<g id="node11" class="node">
<title>RunnersDetailComponent</title>
<polygon fill="#ffffb3" stroke="black" points="620.2,-84.8 457.8,-84.8 457.8,-48.8 620.2,-48.8 620.2,-84.8"/>
<text text-anchor="middle" x="539" y="-62.6" font-family="Times,serif" font-size="14.00">RunnersDetailComponent</text>
</g>
<!-- RunnersDetailComponent&#45;&gt;RunnersModule -->
<g id="edge11" class="edge">
<title>RunnersDetailComponent&#45;&gt;RunnersModule</title>
<path fill="none" stroke="black" d="M539,-85.02C539,-103.63 539,-129.8 539,-129.8 539,-129.8 1204.69,-129.8 1204.69,-129.8"/>
<polygon fill="black" stroke="black" points="1204.69,-133.3 1214.69,-129.8 1204.69,-126.3 1204.69,-133.3"/>
</g>
<!-- RunnersListComponent -->
<g id="node12" class="node">
<title>RunnersListComponent</title>
<polygon fill="#ffffb3" stroke="black" points="439.77,-84.8 290.23,-84.8 290.23,-48.8 439.77,-48.8 439.77,-84.8"/>
<text text-anchor="middle" x="365" y="-62.6" font-family="Times,serif" font-size="14.00">RunnersListComponent</text>
</g>
<!-- RunnersListComponent&#45;&gt;RunnersModule -->
<g id="edge12" class="edge">
<title>RunnersListComponent&#45;&gt;RunnersModule</title>
<path fill="none" stroke="black" d="M365,-85.02C365,-105.17 365,-134.8 365,-134.8 365,-134.8 1204.88,-134.8 1204.88,-134.8"/>
<polygon fill="black" stroke="black" points="1204.88,-138.3 1214.88,-134.8 1204.88,-131.3 1204.88,-138.3"/>
</g>
<!-- FeahterIconModule -->
<g id="node14" class="node">
<title>FeahterIconModule</title>
<polygon fill="#8dd3c7" stroke="black" points="266.4,-84.8 263.4,-88.8 242.4,-88.8 239.4,-84.8 139.6,-84.8 139.6,-48.8 266.4,-48.8 266.4,-84.8"/>
<text text-anchor="middle" x="203" y="-62.6" font-family="Times,serif" font-size="14.00">FeahterIconModule</text>
</g>
<!-- FeahterIconModule&#45;&gt;RunnersModule -->
<g id="edge13" class="edge">
<title>FeahterIconModule&#45;&gt;RunnersModule</title>
<path fill="none" stroke="black" d="M203,-84.84C203,-106.46 203,-139.8 203,-139.8 203,-139.8 1204.82,-139.8 1204.82,-139.8"/>
<polygon fill="black" stroke="black" points="1204.82,-143.3 1214.82,-139.8 1204.82,-136.3 1204.82,-143.3"/>
</g>
<!-- SharedModule -->
<g id="node15" class="node">
<title>SharedModule</title>
<polygon fill="#8dd3c7" stroke="black" points="122.42,-84.8 119.42,-88.8 98.42,-88.8 95.42,-84.8 23.58,-84.8 23.58,-48.8 122.42,-48.8 122.42,-84.8"/>
<text text-anchor="middle" x="73" y="-62.6" font-family="Times,serif" font-size="14.00">SharedModule</text>
</g>
<!-- SharedModule&#45;&gt;RunnersModule -->
<g id="edge14" class="edge">
<title>SharedModule&#45;&gt;RunnersModule</title>
<path fill="none" stroke="black" d="M73,-84.89C73,-107.93 73,-144.8 73,-144.8 73,-144.8 1204.72,-144.8 1204.72,-144.8"/>
<polygon fill="black" stroke="black" points="1204.72,-148.3 1214.72,-144.8 1204.72,-141.3 1204.72,-148.3"/>
</g>
</g>
</svg>
