<?xml version="1.0" encoding="UTF-8" standalone="no"?>
<!DOCTYPE svg PUBLIC "-//W3C//DTD SVG 1.1//EN"
 "http://www.w3.org/Graphics/SVG/1.1/DTD/svg11.dtd">
<!-- Generated by graphviz version 2.47.3 (20210619.1520)
 -->
<!-- Title: dependencies Pages: 1 -->
<svg width="5424pt" height="174pt"
 viewBox="0.00 0.00 5424.00 173.80" xmlns="http://www.w3.org/2000/svg" xmlns:xlink="http://www.w3.org/1999/xlink">
<g id="graph0" class="graph" transform="scale(1 1) rotate(0) translate(4 169.8)">
<title>dependencies</title>
<polygon fill="white" stroke="transparent" points="-4,4 -4,-169.8 5420,-169.8 5420,4 -4,4"/>
<text text-anchor="middle" x="2708" y="-8.2" font-family="sans-serif" font-size="14.00">dependencies</text>
<g id="clust1" class="cluster">
<title>cluster_StudyModule</title>
<polygon fill="none" stroke="black" stroke-dasharray="1,5" points="8,-32.8 8,-157.8 5408,-157.8 5408,-32.8 8,-32.8"/>
</g>
<g id="clust2" class="cluster">
<title>cluster_StudyModule_declarations</title>
<polygon fill="none" stroke="black" points="282,-40.8 282,-92.8 5400,-92.8 5400,-40.8 282,-40.8"/>
</g>
<g id="clust30" class="cluster">
<title>cluster_StudyModule_imports</title>
<polygon fill="none" stroke="black" points="16,-40.8 16,-92.8 274,-92.8 274,-40.8 16,-40.8"/>
</g>
<!-- BasketActiveFilterComponent -->
<g id="node1" class="node">
<title>BasketActiveFilterComponent</title>
<polygon fill="#ffffb3" stroke="black" points="5391.58,-84.8 5204.42,-84.8 5204.42,-48.8 5391.58,-48.8 5391.58,-84.8"/>
<text text-anchor="middle" x="5298" y="-62.6" font-family="Times,serif" font-size="14.00">BasketActiveFilterComponent</text>
</g>
<!-- StudyModule -->
<g id="node28" class="node">
<title>StudyModule</title>
<polygon fill="#8dd3c7" stroke="black" points="2705.22,-149.8 2702.22,-153.8 2681.22,-153.8 2678.22,-149.8 2612.78,-149.8 2612.78,-113.8 2705.22,-113.8 2705.22,-149.8"/>
<text text-anchor="middle" x="2659" y="-127.6" font-family="Times,serif" font-size="14.00">StudyModule</text>
</g>
<!-- BasketActiveFilterComponent&#45;&gt;StudyModule -->
<g id="edge1" class="edge">
<title>BasketActiveFilterComponent&#45;&gt;StudyModule</title>
<path fill="none" stroke="black" d="M5298,-85.18C5298,-109.08 5298,-147.8 5298,-147.8 5298,-147.8 2715.36,-147.8 2715.36,-147.8"/>
<polygon fill="black" stroke="black" points="2715.36,-144.3 2705.36,-147.8 2715.36,-151.3 2715.36,-144.3"/>
</g>
<!-- BasketCreateComponent -->
<g id="node2" class="node">
<title>BasketCreateComponent</title>
<polygon fill="#ffffb3" stroke="black" points="5185.97,-84.8 5030.03,-84.8 5030.03,-48.8 5185.97,-48.8 5185.97,-84.8"/>
<text text-anchor="middle" x="5108" y="-62.6" font-family="Times,serif" font-size="14.00">BasketCreateComponent</text>
</g>
<!-- BasketCreateComponent&#45;&gt;StudyModule -->
<g id="edge2" class="edge">
<title>BasketCreateComponent&#45;&gt;StudyModule</title>
<path fill="none" stroke="black" d="M5108,-85.12C5108,-108.46 5108,-145.8 5108,-145.8 5108,-145.8 2715.2,-145.8 2715.2,-145.8"/>
<polygon fill="black" stroke="black" points="2715.2,-142.3 2705.2,-145.8 2715.2,-149.3 2715.2,-142.3"/>
</g>
<!-- BasketDetailsComponent -->
<g id="node3" class="node">
<title>BasketDetailsComponent</title>
<polygon fill="#ffffb3" stroke="black" points="5011.59,-84.8 4852.41,-84.8 4852.41,-48.8 5011.59,-48.8 5011.59,-84.8"/>
<text text-anchor="middle" x="4932" y="-62.6" font-family="Times,serif" font-size="14.00">BasketDetailsComponent</text>
</g>
<!-- BasketDetailsComponent&#45;&gt;StudyModule -->
<g id="edge3" class="edge">
<title>BasketDetailsComponent&#45;&gt;StudyModule</title>
<path fill="none" stroke="black" d="M4932,-84.81C4932,-107.29 4932,-142.8 4932,-142.8 4932,-142.8 2715.18,-142.8 2715.18,-142.8"/>
<polygon fill="black" stroke="black" points="2715.18,-139.3 2705.18,-142.8 2715.18,-146.3 2715.18,-139.3"/>
</g>
<!-- BasketFilterByDateComponent -->
<g id="node4" class="node">
<title>BasketFilterByDateComponent</title>
<polygon fill="#ffffb3" stroke="black" points="4834.03,-84.8 4641.97,-84.8 4641.97,-48.8 4834.03,-48.8 4834.03,-84.8"/>
<text text-anchor="middle" x="4738" y="-62.6" font-family="Times,serif" font-size="14.00">BasketFilterByDateComponent</text>
</g>
<!-- BasketFilterByDateComponent&#45;&gt;StudyModule -->
<g id="edge4" class="edge">
<title>BasketFilterByDateComponent&#45;&gt;StudyModule</title>
<path fill="none" stroke="black" d="M4738,-85.09C4738,-107.01 4738,-140.8 4738,-140.8 4738,-140.8 2715.34,-140.8 2715.34,-140.8"/>
<polygon fill="black" stroke="black" points="2715.34,-137.3 2705.34,-140.8 2715.34,-144.3 2715.34,-137.3"/>
</g>
<!-- BasketFilterByOddsComponent -->
<g id="node5" class="node">
<title>BasketFilterByOddsComponent</title>
<polygon fill="#ffffb3" stroke="black" points="4623.65,-84.8 4428.35,-84.8 4428.35,-48.8 4623.65,-48.8 4623.65,-84.8"/>
<text text-anchor="middle" x="4526" y="-62.6" font-family="Times,serif" font-size="14.00">BasketFilterByOddsComponent</text>
</g>
<!-- BasketFilterByOddsComponent&#45;&gt;StudyModule -->
<g id="edge5" class="edge">
<title>BasketFilterByOddsComponent&#45;&gt;StudyModule</title>
<path fill="none" stroke="black" d="M4526,-85.08C4526,-106.12 4526,-137.8 4526,-137.8 4526,-137.8 2715.15,-137.8 2715.15,-137.8"/>
<polygon fill="black" stroke="black" points="2715.15,-134.3 2705.15,-137.8 2715.15,-141.3 2715.15,-134.3"/>
</g>
<!-- BasketFilterBySelectionNameComponent -->
<g id="node6" class="node">
<title>BasketFilterBySelectionNameComponent</title>
<polygon fill="#ffffb3" stroke="black" points="4409.62,-84.8 4158.38,-84.8 4158.38,-48.8 4409.62,-48.8 4409.62,-84.8"/>
<text text-anchor="middle" x="4284" y="-62.6" font-family="Times,serif" font-size="14.00">BasketFilterBySelectionNameComponent</text>
</g>
<!-- BasketFilterBySelectionNameComponent&#45;&gt;StudyModule -->
<g id="edge6" class="edge">
<title>BasketFilterBySelectionNameComponent&#45;&gt;StudyModule</title>
<path fill="none" stroke="black" d="M4284,-84.93C4284,-105.37 4284,-135.8 4284,-135.8 4284,-135.8 2715.45,-135.8 2715.45,-135.8"/>
<polygon fill="black" stroke="black" points="2715.45,-132.3 2705.45,-135.8 2715.45,-139.3 2715.45,-132.3"/>
</g>
<!-- BasketFilterEventNameComponent -->
<g id="node7" class="node">
<title>BasketFilterEventNameComponent</title>
<polygon fill="#ffffb3" stroke="black" points="4139.85,-84.8 3924.15,-84.8 3924.15,-48.8 4139.85,-48.8 4139.85,-84.8"/>
<text text-anchor="middle" x="4032" y="-62.6" font-family="Times,serif" font-size="14.00">BasketFilterEventNameComponent</text>
</g>
<!-- BasketFilterEventNameComponent&#45;&gt;StudyModule -->
<g id="edge7" class="edge">
<title>BasketFilterEventNameComponent&#45;&gt;StudyModule</title>
<path fill="none" stroke="black" d="M4032,-85.11C4032,-104.95 4032,-133.8 4032,-133.8 4032,-133.8 2715.47,-133.8 2715.47,-133.8"/>
<polygon fill="black" stroke="black" points="2715.47,-130.3 2705.47,-133.8 2715.47,-137.3 2715.47,-130.3"/>
</g>
<!-- BasketListComponent -->
<g id="node8" class="node">
<title>BasketListComponent</title>
<polygon fill="#ffffb3" stroke="black" points="3905.71,-84.8 3764.29,-84.8 3764.29,-48.8 3905.71,-48.8 3905.71,-84.8"/>
<text text-anchor="middle" x="3835" y="-62.6" font-family="Times,serif" font-size="14.00">BasketListComponent</text>
</g>
<!-- BasketListComponent&#45;&gt;StudyModule -->
<g id="edge8" class="edge">
<title>BasketListComponent&#45;&gt;StudyModule</title>
<path fill="none" stroke="black" d="M3835,-84.97C3835,-103.89 3835,-130.8 3835,-130.8 3835,-130.8 2715.46,-130.8 2715.46,-130.8"/>
<polygon fill="black" stroke="black" points="2715.46,-127.3 2705.46,-130.8 2715.46,-134.3 2715.46,-127.3"/>
</g>
<!-- BasketMainComponent -->
<g id="node9" class="node">
<title>BasketMainComponent</title>
<polygon fill="#ffffb3" stroke="black" points="3746.48,-84.8 3597.52,-84.8 3597.52,-48.8 3746.48,-48.8 3746.48,-84.8"/>
<text text-anchor="middle" x="3672" y="-62.6" font-family="Times,serif" font-size="14.00">BasketMainComponent</text>
</g>
<!-- BasketMainComponent&#45;&gt;StudyModule -->
<g id="edge9" class="edge">
<title>BasketMainComponent&#45;&gt;StudyModule</title>
<path fill="none" stroke="black" d="M3672,-85.07C3672,-103.36 3672,-128.8 3672,-128.8 3672,-128.8 2715.16,-128.8 2715.16,-128.8"/>
<polygon fill="black" stroke="black" points="2715.16,-125.3 2705.16,-128.8 2715.16,-132.3 2715.16,-125.3"/>
</g>
<!-- BasketMarketsListComponent -->
<g id="node10" class="node">
<title>BasketMarketsListComponent</title>
<polygon fill="#ffffb3" stroke="black" points="3579.58,-84.8 3392.42,-84.8 3392.42,-48.8 3579.58,-48.8 3579.58,-84.8"/>
<text text-anchor="middle" x="3486" y="-62.6" font-family="Times,serif" font-size="14.00">BasketMarketsListComponent</text>
</g>
<!-- BasketMarketsListComponent&#45;&gt;StudyModule -->
<g id="edge10" class="edge">
<title>BasketMarketsListComponent&#45;&gt;StudyModule</title>
<path fill="none" stroke="black" d="M3486,-84.82C3486,-102.17 3486,-125.8 3486,-125.8 3486,-125.8 2715.24,-125.8 2715.24,-125.8"/>
<polygon fill="black" stroke="black" points="2715.24,-122.3 2705.24,-125.8 2715.24,-129.3 2715.24,-122.3"/>
</g>
<!-- EntryCreateComponent -->
<g id="node11" class="node">
<title>EntryCreateComponent</title>
<polygon fill="#ffffb3" stroke="black" points="3374.47,-84.8 3225.53,-84.8 3225.53,-48.8 3374.47,-48.8 3374.47,-84.8"/>
<text text-anchor="middle" x="3300" y="-62.6" font-family="Times,serif" font-size="14.00">EntryCreateComponent</text>
</g>
<!-- EntryCreateComponent&#45;&gt;StudyModule -->
<g id="edge11" class="edge">
<title>EntryCreateComponent&#45;&gt;StudyModule</title>
<path fill="none" stroke="black" d="M3300,-84.84C3300,-101.53 3300,-123.8 3300,-123.8 3300,-123.8 2715.36,-123.8 2715.36,-123.8"/>
<polygon fill="black" stroke="black" points="2715.36,-120.3 2705.36,-123.8 2715.36,-127.3 2715.36,-120.3"/>
</g>
<!-- EntryDetailComponent -->
<g id="node12" class="node">
<title>EntryDetailComponent</title>
<polygon fill="#ffffb3" stroke="black" points="3207.14,-84.8 3060.86,-84.8 3060.86,-48.8 3207.14,-48.8 3207.14,-84.8"/>
<text text-anchor="middle" x="3134" y="-62.6" font-family="Times,serif" font-size="14.00">EntryDetailComponent</text>
</g>
<!-- EntryDetailComponent&#45;&gt;StudyModule -->
<g id="edge12" class="edge">
<title>EntryDetailComponent&#45;&gt;StudyModule</title>
<path fill="none" stroke="black" d="M3134,-84.81C3134,-100.85 3134,-121.8 3134,-121.8 3134,-121.8 2715.41,-121.8 2715.41,-121.8"/>
<polygon fill="black" stroke="black" points="2715.41,-118.3 2705.41,-121.8 2715.41,-125.3 2715.41,-118.3"/>
</g>
<!-- EntryListComponent -->
<g id="node13" class="node">
<title>EntryListComponent</title>
<polygon fill="#ffffb3" stroke="black" points="3043.21,-84.8 2908.79,-84.8 2908.79,-48.8 3043.21,-48.8 3043.21,-84.8"/>
<text text-anchor="middle" x="2976" y="-62.6" font-family="Times,serif" font-size="14.00">EntryListComponent</text>
</g>
<!-- EntryListComponent&#45;&gt;StudyModule -->
<g id="edge13" class="edge">
<title>EntryListComponent&#45;&gt;StudyModule</title>
<path fill="none" stroke="black" d="M2976,-84.99C2976,-99.98 2976,-118.8 2976,-118.8 2976,-118.8 2715.43,-118.8 2715.43,-118.8"/>
<polygon fill="black" stroke="black" points="2715.43,-115.3 2705.43,-118.8 2715.43,-122.3 2715.43,-115.3"/>
</g>
<!-- EntryMainComponent -->
<g id="node14" class="node">
<title>EntryMainComponent</title>
<polygon fill="#ffffb3" stroke="black" points="2890.99,-84.8 2749.01,-84.8 2749.01,-48.8 2890.99,-48.8 2890.99,-84.8"/>
<text text-anchor="middle" x="2820" y="-62.6" font-family="Times,serif" font-size="14.00">EntryMainComponent</text>
</g>
<!-- EntryMainComponent&#45;&gt;StudyModule -->
<g id="edge14" class="edge">
<title>EntryMainComponent&#45;&gt;StudyModule</title>
<path fill="none" stroke="black" d="M2820,-84.85C2820,-99.17 2820,-116.8 2820,-116.8 2820,-116.8 2715.14,-116.8 2715.14,-116.8"/>
<polygon fill="black" stroke="black" points="2715.14,-113.3 2705.14,-116.8 2715.14,-120.3 2715.14,-113.3"/>
</g>
<!-- MainStudyComponent -->
<g id="node15" class="node">
<title>MainStudyComponent</title>
<polygon fill="#ffffb3" stroke="black" points="2730.56,-84.8 2587.44,-84.8 2587.44,-48.8 2730.56,-48.8 2730.56,-84.8"/>
<text text-anchor="middle" x="2659" y="-62.6" font-family="Times,serif" font-size="14.00">MainStudyComponent</text>
</g>
<!-- MainStudyComponent&#45;&gt;StudyModule -->
<g id="edge15" class="edge">
<title>MainStudyComponent&#45;&gt;StudyModule</title>
<path fill="none" stroke="black" d="M2659,-84.91C2659,-84.91 2659,-103.79 2659,-103.79"/>
<polygon fill="black" stroke="black" points="2655.5,-103.79 2659,-113.79 2662.5,-103.79 2655.5,-103.79"/>
</g>
<!-- PlayersCreateComponent -->
<g id="node16" class="node">
<title>PlayersCreateComponent</title>
<polygon fill="#ffffb3" stroke="black" points="2569.57,-84.8 2410.43,-84.8 2410.43,-48.8 2569.57,-48.8 2569.57,-84.8"/>
<text text-anchor="middle" x="2490" y="-62.6" font-family="Times,serif" font-size="14.00">PlayersCreateComponent</text>
</g>
<!-- PlayersCreateComponent&#45;&gt;StudyModule -->
<g id="edge16" class="edge">
<title>PlayersCreateComponent&#45;&gt;StudyModule</title>
<path fill="none" stroke="black" d="M2490,-84.85C2490,-99.17 2490,-116.8 2490,-116.8 2490,-116.8 2602.82,-116.8 2602.82,-116.8"/>
<polygon fill="black" stroke="black" points="2602.82,-120.3 2612.82,-116.8 2602.82,-113.3 2602.82,-120.3"/>
</g>
<!-- PlayersListComponent -->
<g id="node17" class="node">
<title>PlayersListComponent</title>
<polygon fill="#ffffb3" stroke="black" points="2392.32,-84.8 2247.68,-84.8 2247.68,-48.8 2392.32,-48.8 2392.32,-84.8"/>
<text text-anchor="middle" x="2320" y="-62.6" font-family="Times,serif" font-size="14.00">PlayersListComponent</text>
</g>
<!-- PlayersListComponent&#45;&gt;StudyModule -->
<g id="edge17" class="edge">
<title>PlayersListComponent&#45;&gt;StudyModule</title>
<path fill="none" stroke="black" d="M2320,-84.99C2320,-99.98 2320,-118.8 2320,-118.8 2320,-118.8 2602.57,-118.8 2602.57,-118.8"/>
<polygon fill="black" stroke="black" points="2602.57,-122.3 2612.57,-118.8 2602.57,-115.3 2602.57,-122.3"/>
</g>
<!-- PlayersMainComponent -->
<g id="node18" class="node">
<title>PlayersMainComponent</title>
<polygon fill="#ffffb3" stroke="black" points="2230.09,-84.8 2077.91,-84.8 2077.91,-48.8 2230.09,-48.8 2230.09,-84.8"/>
<text text-anchor="middle" x="2154" y="-62.6" font-family="Times,serif" font-size="14.00">PlayersMainComponent</text>
</g>
<!-- PlayersMainComponent&#45;&gt;StudyModule -->
<g id="edge18" class="edge">
<title>PlayersMainComponent&#45;&gt;StudyModule</title>
<path fill="none" stroke="black" d="M2154,-84.81C2154,-100.85 2154,-121.8 2154,-121.8 2154,-121.8 2602.85,-121.8 2602.85,-121.8"/>
<polygon fill="black" stroke="black" points="2602.85,-125.3 2612.85,-121.8 2602.85,-118.3 2602.85,-125.3"/>
</g>
<!-- StudyComparatorComponent -->
<g id="node19" class="node">
<title>StudyComparatorComponent</title>
<polygon fill="#ffffb3" stroke="black" points="2060.37,-84.8 1879.63,-84.8 1879.63,-48.8 2060.37,-48.8 2060.37,-84.8"/>
<text text-anchor="middle" x="1970" y="-62.6" font-family="Times,serif" font-size="14.00">StudyComparatorComponent</text>
</g>
<!-- StudyComparatorComponent&#45;&gt;StudyModule -->
<g id="edge19" class="edge">
<title>StudyComparatorComponent&#45;&gt;StudyModule</title>
<path fill="none" stroke="black" d="M1970,-84.84C1970,-101.53 1970,-123.8 1970,-123.8 1970,-123.8 2602.72,-123.8 2602.72,-123.8"/>
<polygon fill="black" stroke="black" points="2602.72,-127.3 2612.72,-123.8 2602.72,-120.3 2602.72,-127.3"/>
</g>
<!-- StudyComparatorReportComponent -->
<g id="node20" class="node">
<title>StudyComparatorReportComponent</title>
<polygon fill="#ffffb3" stroke="black" points="1861.48,-84.8 1642.52,-84.8 1642.52,-48.8 1861.48,-48.8 1861.48,-84.8"/>
<text text-anchor="middle" x="1752" y="-62.6" font-family="Times,serif" font-size="14.00">StudyComparatorReportComponent</text>
</g>
<!-- StudyComparatorReportComponent&#45;&gt;StudyModule -->
<g id="edge20" class="edge">
<title>StudyComparatorReportComponent&#45;&gt;StudyModule</title>
<path fill="none" stroke="black" d="M1752,-84.82C1752,-102.17 1752,-125.8 1752,-125.8 1752,-125.8 2602.77,-125.8 2602.77,-125.8"/>
<polygon fill="black" stroke="black" points="2602.77,-129.3 2612.77,-125.8 2602.77,-122.3 2602.77,-129.3"/>
</g>
<!-- StudyComparatorTradesTableComponent -->
<g id="node21" class="node">
<title>StudyComparatorTradesTableComponent</title>
<polygon fill="#ffffb3" stroke="black" points="1624.33,-84.8 1373.67,-84.8 1373.67,-48.8 1624.33,-48.8 1624.33,-84.8"/>
<text text-anchor="middle" x="1499" y="-62.6" font-family="Times,serif" font-size="14.00">StudyComparatorTradesTableComponent</text>
</g>
<!-- StudyComparatorTradesTableComponent&#45;&gt;StudyModule -->
<g id="edge21" class="edge">
<title>StudyComparatorTradesTableComponent&#45;&gt;StudyModule</title>
<path fill="none" stroke="black" d="M1499,-85.07C1499,-103.36 1499,-128.8 1499,-128.8 1499,-128.8 2602.81,-128.8 2602.81,-128.8"/>
<polygon fill="black" stroke="black" points="2602.81,-132.3 2612.81,-128.8 2602.81,-125.3 2602.81,-132.3"/>
</g>
<!-- StudyCreateComponent -->
<g id="node22" class="node">
<title>StudyCreateComponent</title>
<polygon fill="#ffffb3" stroke="black" points="1355.04,-84.8 1204.96,-84.8 1204.96,-48.8 1355.04,-48.8 1355.04,-84.8"/>
<text text-anchor="middle" x="1280" y="-62.6" font-family="Times,serif" font-size="14.00">StudyCreateComponent</text>
</g>
<!-- StudyCreateComponent&#45;&gt;StudyModule -->
<g id="edge22" class="edge">
<title>StudyCreateComponent&#45;&gt;StudyModule</title>
<path fill="none" stroke="black" d="M1280,-84.97C1280,-103.89 1280,-130.8 1280,-130.8 1280,-130.8 2602.72,-130.8 2602.72,-130.8"/>
<polygon fill="black" stroke="black" points="2602.72,-134.3 2612.72,-130.8 2602.72,-127.3 2602.72,-134.3"/>
</g>
<!-- StudyMainComponent -->
<g id="node23" class="node">
<title>StudyMainComponent</title>
<polygon fill="#ffffb3" stroke="black" points="1186.56,-84.8 1043.44,-84.8 1043.44,-48.8 1186.56,-48.8 1186.56,-84.8"/>
<text text-anchor="middle" x="1115" y="-62.6" font-family="Times,serif" font-size="14.00">StudyMainComponent</text>
</g>
<!-- StudyMainComponent&#45;&gt;StudyModule -->
<g id="edge23" class="edge">
<title>StudyMainComponent&#45;&gt;StudyModule</title>
<path fill="none" stroke="black" d="M1115,-85.11C1115,-104.95 1115,-133.8 1115,-133.8 1115,-133.8 2602.79,-133.8 2602.79,-133.8"/>
<polygon fill="black" stroke="black" points="2602.79,-137.3 2612.79,-133.8 2602.79,-130.3 2602.79,-137.3"/>
</g>
<!-- StudyMmChartsComponent -->
<g id="node24" class="node">
<title>StudyMmChartsComponent</title>
<polygon fill="#ffffb3" stroke="black" points="1024.89,-84.8 851.11,-84.8 851.11,-48.8 1024.89,-48.8 1024.89,-84.8"/>
<text text-anchor="middle" x="938" y="-62.6" font-family="Times,serif" font-size="14.00">StudyMmChartsComponent</text>
</g>
<!-- StudyMmChartsComponent&#45;&gt;StudyModule -->
<g id="edge24" class="edge">
<title>StudyMmChartsComponent&#45;&gt;StudyModule</title>
<path fill="none" stroke="black" d="M938,-84.93C938,-105.37 938,-135.8 938,-135.8 938,-135.8 2602.52,-135.8 2602.52,-135.8"/>
<polygon fill="black" stroke="black" points="2602.52,-139.3 2612.52,-135.8 2602.52,-132.3 2602.52,-139.3"/>
</g>
<!-- StudyMmComponent -->
<g id="node25" class="node">
<title>StudyMmComponent</title>
<polygon fill="#ffffb3" stroke="black" points="832.84,-84.8 695.16,-84.8 695.16,-48.8 832.84,-48.8 832.84,-84.8"/>
<text text-anchor="middle" x="764" y="-62.6" font-family="Times,serif" font-size="14.00">StudyMmComponent</text>
</g>
<!-- StudyMmComponent&#45;&gt;StudyModule -->
<g id="edge25" class="edge">
<title>StudyMmComponent&#45;&gt;StudyModule</title>
<path fill="none" stroke="black" d="M764,-85.08C764,-106.12 764,-137.8 764,-137.8 764,-137.8 2602.63,-137.8 2602.63,-137.8"/>
<polygon fill="black" stroke="black" points="2602.63,-141.3 2612.63,-137.8 2602.63,-134.3 2602.63,-141.3"/>
</g>
<!-- StudyMmDatatableComponent -->
<g id="node26" class="node">
<title>StudyMmDatatableComponent</title>
<polygon fill="#ffffb3" stroke="black" points="677.48,-84.8 486.52,-84.8 486.52,-48.8 677.48,-48.8 677.48,-84.8"/>
<text text-anchor="middle" x="582" y="-62.6" font-family="Times,serif" font-size="14.00">StudyMmDatatableComponent</text>
</g>
<!-- StudyMmDatatableComponent&#45;&gt;StudyModule -->
<g id="edge26" class="edge">
<title>StudyMmDatatableComponent&#45;&gt;StudyModule</title>
<path fill="none" stroke="black" d="M582,-85.09C582,-107.01 582,-140.8 582,-140.8 582,-140.8 2602.71,-140.8 2602.71,-140.8"/>
<polygon fill="black" stroke="black" points="2602.71,-144.3 2612.71,-140.8 2602.71,-137.3 2602.71,-144.3"/>
</g>
<!-- StudyMmParamsComponent -->
<g id="node27" class="node">
<title>StudyMmParamsComponent</title>
<polygon fill="#ffffb3" stroke="black" points="468.05,-84.8 289.95,-84.8 289.95,-48.8 468.05,-48.8 468.05,-84.8"/>
<text text-anchor="middle" x="379" y="-62.6" font-family="Times,serif" font-size="14.00">StudyMmParamsComponent</text>
</g>
<!-- StudyMmParamsComponent&#45;&gt;StudyModule -->
<g id="edge27" class="edge">
<title>StudyMmParamsComponent&#45;&gt;StudyModule</title>
<path fill="none" stroke="black" d="M379,-84.81C379,-107.29 379,-142.8 379,-142.8 379,-142.8 2602.68,-142.8 2602.68,-142.8"/>
<polygon fill="black" stroke="black" points="2602.68,-146.3 2612.68,-142.8 2602.68,-139.3 2602.68,-146.3"/>
</g>
<!-- FeahterIconModule -->
<g id="node29" class="node">
<title>FeahterIconModule</title>
<polygon fill="#8dd3c7" stroke="black" points="266.4,-84.8 263.4,-88.8 242.4,-88.8 239.4,-84.8 139.6,-84.8 139.6,-48.8 266.4,-48.8 266.4,-84.8"/>
<text text-anchor="middle" x="203" y="-62.6" font-family="Times,serif" font-size="14.00">FeahterIconModule</text>
</g>
<!-- FeahterIconModule&#45;&gt;StudyModule -->
<g id="edge28" class="edge">
<title>FeahterIconModule&#45;&gt;StudyModule</title>
<path fill="none" stroke="black" d="M203,-85.12C203,-108.46 203,-145.8 203,-145.8 203,-145.8 2602.67,-145.8 2602.67,-145.8"/>
<polygon fill="black" stroke="black" points="2602.67,-149.3 2612.67,-145.8 2602.67,-142.3 2602.67,-149.3"/>
</g>
<!-- SharedModule -->
<g id="node30" class="node">
<title>SharedModule</title>
<polygon fill="#8dd3c7" stroke="black" points="122.42,-84.8 119.42,-88.8 98.42,-88.8 95.42,-84.8 23.58,-84.8 23.58,-48.8 122.42,-48.8 122.42,-84.8"/>
<text text-anchor="middle" x="73" y="-62.6" font-family="Times,serif" font-size="14.00">SharedModule</text>
</g>
<!-- SharedModule&#45;&gt;StudyModule -->
<g id="edge29" class="edge">
<title>SharedModule&#45;&gt;StudyModule</title>
<path fill="none" stroke="black" d="M73,-85.18C73,-109.08 73,-147.8 73,-147.8 73,-147.8 2602.74,-147.8 2602.74,-147.8"/>
<polygon fill="black" stroke="black" points="2602.74,-151.3 2612.74,-147.8 2602.74,-144.3 2602.74,-151.3"/>
</g>
</g>
</svg>
