<?xml version="1.0" encoding="UTF-8" standalone="no"?>
<!DOCTYPE svg PUBLIC "-//W3C//DTD SVG 1.1//EN"
 "http://www.w3.org/Graphics/SVG/1.1/DTD/svg11.dtd">
<!-- Generated by graphviz version 2.47.3 (20210619.1520)
 -->
<!-- Title: dependencies Pages: 1 -->
<svg width="2591pt" height="174pt"
 viewBox="0.00 0.00 2591.00 173.80" xmlns="http://www.w3.org/2000/svg" xmlns:xlink="http://www.w3.org/1999/xlink">
<g id="graph0" class="graph" transform="scale(1 1) rotate(0) translate(4 169.8)">
<title>dependencies</title>
<polygon fill="white" stroke="transparent" points="-4,4 -4,-169.8 2587,-169.8 2587,4 -4,4"/>
<text text-anchor="middle" x="1291.5" y="-8.2" font-family="sans-serif" font-size="14.00">dependencies</text>
<g id="clust1" class="cluster">
<title>cluster_ReportModule</title>
<polygon fill="none" stroke="black" stroke-dasharray="1,5" points="8,-32.8 8,-157.8 2575,-157.8 2575,-32.8 8,-32.8"/>
</g>
<g id="clust14" class="cluster">
<title>cluster_ReportModule_imports</title>
<polygon fill="none" stroke="black" points="2309,-40.8 2309,-92.8 2567,-92.8 2567,-40.8 2309,-40.8"/>
</g>
<g id="clust2" class="cluster">
<title>cluster_ReportModule_declarations</title>
<polygon fill="none" stroke="black" points="16,-40.8 16,-92.8 2301,-92.8 2301,-40.8 16,-40.8"/>
</g>
<!-- ReportMainComponent -->
<g id="node1" class="node">
<title>ReportMainComponent</title>
<polygon fill="#ffffb3" stroke="black" points="2293.48,-84.8 2144.52,-84.8 2144.52,-48.8 2293.48,-48.8 2293.48,-84.8"/>
<text text-anchor="middle" x="2219" y="-62.6" font-family="Times,serif" font-size="14.00">ReportMainComponent</text>
</g>
<!-- ReportModule -->
<g id="node12" class="node">
<title>ReportModule</title>
<polygon fill="#8dd3c7" stroke="black" points="1432.65,-149.8 1429.65,-153.8 1408.65,-153.8 1405.65,-149.8 1335.35,-149.8 1335.35,-113.8 1432.65,-113.8 1432.65,-149.8"/>
<text text-anchor="middle" x="1384" y="-127.6" font-family="Times,serif" font-size="14.00">ReportModule</text>
</g>
<!-- ReportMainComponent&#45;&gt;ReportModule -->
<g id="edge1" class="edge">
<title>ReportMainComponent&#45;&gt;ReportModule</title>
<path fill="none" stroke="black" d="M2219,-85.02C2219,-105.17 2219,-134.8 2219,-134.8 2219,-134.8 1442.81,-134.8 1442.81,-134.8"/>
<polygon fill="black" stroke="black" points="1442.81,-131.3 1432.81,-134.8 1442.81,-138.3 1442.81,-131.3"/>
</g>
<!-- StrategyCreateModalComponent -->
<g id="node2" class="node">
<title>StrategyCreateModalComponent</title>
<polygon fill="#ffffb3" stroke="black" points="2126.57,-84.8 1925.43,-84.8 1925.43,-48.8 2126.57,-48.8 2126.57,-84.8"/>
<text text-anchor="middle" x="2026" y="-62.6" font-family="Times,serif" font-size="14.00">StrategyCreateModalComponent</text>
</g>
<!-- StrategyCreateModalComponent&#45;&gt;ReportModule -->
<g id="edge2" class="edge">
<title>StrategyCreateModalComponent&#45;&gt;ReportModule</title>
<path fill="none" stroke="black" d="M2026,-85.02C2026,-103.63 2026,-129.8 2026,-129.8 2026,-129.8 1442.78,-129.8 1442.78,-129.8"/>
<polygon fill="black" stroke="black" points="1442.78,-126.3 1432.78,-129.8 1442.78,-133.3 1442.78,-126.3"/>
</g>
<!-- StrategyDatatableComponent -->
<g id="node3" class="node">
<title>StrategyDatatableComponent</title>
<polygon fill="#ffffb3" stroke="black" points="1907.62,-84.8 1726.38,-84.8 1726.38,-48.8 1907.62,-48.8 1907.62,-84.8"/>
<text text-anchor="middle" x="1817" y="-62.6" font-family="Times,serif" font-size="14.00">StrategyDatatableComponent</text>
</g>
<!-- StrategyDatatableComponent&#45;&gt;ReportModule -->
<g id="edge3" class="edge">
<title>StrategyDatatableComponent&#45;&gt;ReportModule</title>
<path fill="none" stroke="black" d="M1817,-84.83C1817,-101.86 1817,-124.8 1817,-124.8 1817,-124.8 1442.83,-124.8 1442.83,-124.8"/>
<polygon fill="black" stroke="black" points="1442.83,-121.3 1432.83,-124.8 1442.83,-128.3 1442.83,-121.3"/>
</g>
<!-- StrategyDeleteModalComponent -->
<g id="node4" class="node">
<title>StrategyDeleteModalComponent</title>
<polygon fill="#ffffb3" stroke="black" points="1708.57,-84.8 1507.43,-84.8 1507.43,-48.8 1708.57,-48.8 1708.57,-84.8"/>
<text text-anchor="middle" x="1608" y="-62.6" font-family="Times,serif" font-size="14.00">StrategyDeleteModalComponent</text>
</g>
<!-- StrategyDeleteModalComponent&#45;&gt;ReportModule -->
<g id="edge4" class="edge">
<title>StrategyDeleteModalComponent&#45;&gt;ReportModule</title>
<path fill="none" stroke="black" d="M1608,-85.04C1608,-100.37 1608,-119.8 1608,-119.8 1608,-119.8 1442.88,-119.8 1442.88,-119.8"/>
<polygon fill="black" stroke="black" points="1442.88,-116.3 1432.88,-119.8 1442.88,-123.3 1442.88,-116.3"/>
</g>
<!-- StrategyUpdatesModalComponent -->
<g id="node5" class="node">
<title>StrategyUpdatesModalComponent</title>
<polygon fill="#ffffb3" stroke="black" points="1489.41,-84.8 1278.59,-84.8 1278.59,-48.8 1489.41,-48.8 1489.41,-84.8"/>
<text text-anchor="middle" x="1384" y="-62.6" font-family="Times,serif" font-size="14.00">StrategyUpdatesModalComponent</text>
</g>
<!-- StrategyUpdatesModalComponent&#45;&gt;ReportModule -->
<g id="edge5" class="edge">
<title>StrategyUpdatesModalComponent&#45;&gt;ReportModule</title>
<path fill="none" stroke="black" d="M1384,-84.91C1384,-84.91 1384,-103.79 1384,-103.79"/>
<polygon fill="black" stroke="black" points="1380.5,-103.79 1384,-113.79 1387.5,-103.79 1380.5,-103.79"/>
</g>
<!-- StrategyUploaderInsertComponent -->
<g id="node6" class="node">
<title>StrategyUploaderInsertComponent</title>
<polygon fill="#ffffb3" stroke="black" points="1260.94,-84.8 1049.06,-84.8 1049.06,-48.8 1260.94,-48.8 1260.94,-84.8"/>
<text text-anchor="middle" x="1155" y="-62.6" font-family="Times,serif" font-size="14.00">StrategyUploaderInsertComponent</text>
</g>
<!-- StrategyUploaderInsertComponent&#45;&gt;ReportModule -->
<g id="edge6" class="edge">
<title>StrategyUploaderInsertComponent&#45;&gt;ReportModule</title>
<path fill="none" stroke="black" d="M1155,-85.04C1155,-100.37 1155,-119.8 1155,-119.8 1155,-119.8 1325.15,-119.8 1325.15,-119.8"/>
<polygon fill="black" stroke="black" points="1325.15,-123.3 1335.15,-119.8 1325.15,-116.3 1325.15,-123.3"/>
</g>
<!-- StrategyUploaderMainComponent -->
<g id="node7" class="node">
<title>StrategyUploaderMainComponent</title>
<polygon fill="#ffffb3" stroke="black" points="1030.62,-84.8 821.38,-84.8 821.38,-48.8 1030.62,-48.8 1030.62,-84.8"/>
<text text-anchor="middle" x="926" y="-62.6" font-family="Times,serif" font-size="14.00">StrategyUploaderMainComponent</text>
</g>
<!-- StrategyUploaderMainComponent&#45;&gt;ReportModule -->
<g id="edge7" class="edge">
<title>StrategyUploaderMainComponent&#45;&gt;ReportModule</title>
<path fill="none" stroke="black" d="M926,-84.83C926,-101.86 926,-124.8 926,-124.8 926,-124.8 1324.99,-124.8 1324.99,-124.8"/>
<polygon fill="black" stroke="black" points="1324.99,-128.3 1334.99,-124.8 1324.99,-121.3 1324.99,-128.3"/>
</g>
<!-- TradeCreateModalComponent -->
<g id="node8" class="node">
<title>TradeCreateModalComponent</title>
<polygon fill="#ffffb3" stroke="black" points="803.56,-84.8 616.44,-84.8 616.44,-48.8 803.56,-48.8 803.56,-84.8"/>
<text text-anchor="middle" x="710" y="-62.6" font-family="Times,serif" font-size="14.00">TradeCreateModalComponent</text>
</g>
<!-- TradeCreateModalComponent&#45;&gt;ReportModule -->
<g id="edge8" class="edge">
<title>TradeCreateModalComponent&#45;&gt;ReportModule</title>
<path fill="none" stroke="black" d="M710,-85.02C710,-103.63 710,-129.8 710,-129.8 710,-129.8 1325.26,-129.8 1325.26,-129.8"/>
<polygon fill="black" stroke="black" points="1325.26,-133.3 1335.26,-129.8 1325.26,-126.3 1325.26,-133.3"/>
</g>
<!-- TradeDatatableComponent -->
<g id="node9" class="node">
<title>TradeDatatableComponent</title>
<polygon fill="#ffffb3" stroke="black" points="598.61,-84.8 431.39,-84.8 431.39,-48.8 598.61,-48.8 598.61,-84.8"/>
<text text-anchor="middle" x="515" y="-62.6" font-family="Times,serif" font-size="14.00">TradeDatatableComponent</text>
</g>
<!-- TradeDatatableComponent&#45;&gt;ReportModule -->
<g id="edge9" class="edge">
<title>TradeDatatableComponent&#45;&gt;ReportModule</title>
<path fill="none" stroke="black" d="M515,-85.02C515,-105.17 515,-134.8 515,-134.8 515,-134.8 1325.1,-134.8 1325.1,-134.8"/>
<polygon fill="black" stroke="black" points="1325.1,-138.3 1335.1,-134.8 1325.1,-131.3 1325.1,-138.3"/>
</g>
<!-- TradeRowDetailComponent -->
<g id="node10" class="node">
<title>TradeRowDetailComponent</title>
<polygon fill="#ffffb3" stroke="black" points="413.13,-84.8 238.87,-84.8 238.87,-48.8 413.13,-48.8 413.13,-84.8"/>
<text text-anchor="middle" x="326" y="-62.6" font-family="Times,serif" font-size="14.00">TradeRowDetailComponent</text>
</g>
<!-- TradeRowDetailComponent&#45;&gt;ReportModule -->
<g id="edge10" class="edge">
<title>TradeRowDetailComponent&#45;&gt;ReportModule</title>
<path fill="none" stroke="black" d="M326,-84.84C326,-106.46 326,-139.8 326,-139.8 326,-139.8 1325.09,-139.8 1325.09,-139.8"/>
<polygon fill="black" stroke="black" points="1325.09,-143.3 1335.09,-139.8 1325.09,-136.3 1325.09,-143.3"/>
</g>
<!-- TradeUpdatesModalComponent -->
<g id="node11" class="node">
<title>TradeUpdatesModalComponent</title>
<polygon fill="#ffffb3" stroke="black" points="220.4,-84.8 23.6,-84.8 23.6,-48.8 220.4,-48.8 220.4,-84.8"/>
<text text-anchor="middle" x="122" y="-62.6" font-family="Times,serif" font-size="14.00">TradeUpdatesModalComponent</text>
</g>
<!-- TradeUpdatesModalComponent&#45;&gt;ReportModule -->
<g id="edge11" class="edge">
<title>TradeUpdatesModalComponent&#45;&gt;ReportModule</title>
<path fill="none" stroke="black" d="M122,-84.89C122,-107.93 122,-144.8 122,-144.8 122,-144.8 1325.3,-144.8 1325.3,-144.8"/>
<polygon fill="black" stroke="black" points="1325.3,-148.3 1335.3,-144.8 1325.3,-141.3 1325.3,-148.3"/>
</g>
<!-- FeahterIconModule -->
<g id="node13" class="node">
<title>FeahterIconModule</title>
<polygon fill="#8dd3c7" stroke="black" points="2559.4,-84.8 2556.4,-88.8 2535.4,-88.8 2532.4,-84.8 2432.6,-84.8 2432.6,-48.8 2559.4,-48.8 2559.4,-84.8"/>
<text text-anchor="middle" x="2496" y="-62.6" font-family="Times,serif" font-size="14.00">FeahterIconModule</text>
</g>
<!-- FeahterIconModule&#45;&gt;ReportModule -->
<g id="edge12" class="edge">
<title>FeahterIconModule&#45;&gt;ReportModule</title>
<path fill="none" stroke="black" d="M2496,-84.89C2496,-107.93 2496,-144.8 2496,-144.8 2496,-144.8 1442.86,-144.8 1442.86,-144.8"/>
<polygon fill="black" stroke="black" points="1442.86,-141.3 1432.86,-144.8 1442.86,-148.3 1442.86,-141.3"/>
</g>
<!-- SharedModule -->
<g id="node14" class="node">
<title>SharedModule</title>
<polygon fill="#8dd3c7" stroke="black" points="2415.42,-84.8 2412.42,-88.8 2391.42,-88.8 2388.42,-84.8 2316.58,-84.8 2316.58,-48.8 2415.42,-48.8 2415.42,-84.8"/>
<text text-anchor="middle" x="2366" y="-62.6" font-family="Times,serif" font-size="14.00">SharedModule</text>
</g>
<!-- SharedModule&#45;&gt;ReportModule -->
<g id="edge13" class="edge">
<title>SharedModule&#45;&gt;ReportModule</title>
<path fill="none" stroke="black" d="M2366,-84.84C2366,-106.46 2366,-139.8 2366,-139.8 2366,-139.8 1442.7,-139.8 1442.7,-139.8"/>
<polygon fill="black" stroke="black" points="1442.7,-136.3 1432.7,-139.8 1442.7,-143.3 1442.7,-136.3"/>
</g>
</g>
</svg>
