<?xml version="1.0" encoding="UTF-8" standalone="no"?>
<!DOCTYPE svg PUBLIC "-//W3C//DTD SVG 1.1//EN"
 "http://www.w3.org/Graphics/SVG/1.1/DTD/svg11.dtd">
<!-- Generated by graphviz version 2.47.3 (20210619.1520)
 -->
<!-- Title: dependencies Pages: 1 -->
<svg width="466pt" height="174pt"
 viewBox="0.00 0.00 466.00 173.80" xmlns="http://www.w3.org/2000/svg" xmlns:xlink="http://www.w3.org/1999/xlink">
<g id="graph0" class="graph" transform="scale(1 1) rotate(0) translate(4 169.8)">
<title>dependencies</title>
<polygon fill="white" stroke="transparent" points="-4,4 -4,-169.8 462,-169.8 462,4 -4,4"/>
<text text-anchor="middle" x="229" y="-8.2" font-family="sans-serif" font-size="14.00">dependencies</text>
<g id="clust1" class="cluster">
<title>cluster_NotesModule</title>
<polygon fill="none" stroke="black" stroke-dasharray="1,5" points="8,-32.8 8,-157.8 450,-157.8 450,-32.8 8,-32.8"/>
</g>
<g id="clust4" class="cluster">
<title>cluster_NotesModule_imports</title>
<polygon fill="none" stroke="black" points="184,-40.8 184,-92.8 442,-92.8 442,-40.8 184,-40.8"/>
</g>
<g id="clust2" class="cluster">
<title>cluster_NotesModule_declarations</title>
<polygon fill="none" stroke="black" points="16,-40.8 16,-92.8 176,-92.8 176,-40.8 16,-40.8"/>
</g>
<!-- NotesMainComponent -->
<g id="node1" class="node">
<title>NotesMainComponent</title>
<polygon fill="#ffffb3" stroke="black" points="167.54,-84.8 24.46,-84.8 24.46,-48.8 167.54,-48.8 167.54,-84.8"/>
<text text-anchor="middle" x="96" y="-62.6" font-family="Times,serif" font-size="14.00">NotesMainComponent</text>
</g>
<!-- NotesModule -->
<g id="node2" class="node">
<title>NotesModule</title>
<polygon fill="#8dd3c7" stroke="black" points="287.21,-149.8 284.21,-153.8 263.21,-153.8 260.21,-149.8 194.79,-149.8 194.79,-113.8 287.21,-113.8 287.21,-149.8"/>
<text text-anchor="middle" x="241" y="-127.6" font-family="Times,serif" font-size="14.00">NotesModule</text>
</g>
<!-- NotesMainComponent&#45;&gt;NotesModule -->
<g id="edge1" class="edge">
<title>NotesMainComponent&#45;&gt;NotesModule</title>
<path fill="none" stroke="black" d="M96,-84.91C96,-104.14 96,-131.8 96,-131.8 96,-131.8 184.72,-131.8 184.72,-131.8"/>
<polygon fill="black" stroke="black" points="184.72,-135.3 194.72,-131.8 184.72,-128.3 184.72,-135.3"/>
</g>
<!-- FeahterIconModule -->
<g id="node3" class="node">
<title>FeahterIconModule</title>
<polygon fill="#8dd3c7" stroke="black" points="434.4,-84.8 431.4,-88.8 410.4,-88.8 407.4,-84.8 307.6,-84.8 307.6,-48.8 434.4,-48.8 434.4,-84.8"/>
<text text-anchor="middle" x="371" y="-62.6" font-family="Times,serif" font-size="14.00">FeahterIconModule</text>
</g>
<!-- FeahterIconModule&#45;&gt;NotesModule -->
<g id="edge2" class="edge">
<title>FeahterIconModule&#45;&gt;NotesModule</title>
<path fill="none" stroke="black" d="M371,-84.91C371,-104.14 371,-131.8 371,-131.8 371,-131.8 297.2,-131.8 297.2,-131.8"/>
<polygon fill="black" stroke="black" points="297.2,-128.3 287.2,-131.8 297.2,-135.3 297.2,-128.3"/>
</g>
<!-- SharedModule -->
<g id="node4" class="node">
<title>SharedModule</title>
<polygon fill="#8dd3c7" stroke="black" points="290.42,-84.8 287.42,-88.8 266.42,-88.8 263.42,-84.8 191.58,-84.8 191.58,-48.8 290.42,-48.8 290.42,-84.8"/>
<text text-anchor="middle" x="241" y="-62.6" font-family="Times,serif" font-size="14.00">SharedModule</text>
</g>
<!-- SharedModule&#45;&gt;NotesModule -->
<g id="edge3" class="edge">
<title>SharedModule&#45;&gt;NotesModule</title>
<path fill="none" stroke="black" d="M241,-84.91C241,-84.91 241,-103.79 241,-103.79"/>
<polygon fill="black" stroke="black" points="237.5,-103.79 241,-113.79 244.5,-103.79 237.5,-103.79"/>
</g>
</g>
</svg>
