<?xml version="1.0" encoding="UTF-8" standalone="no"?>
<!DOCTYPE svg PUBLIC "-//W3C//DTD SVG 1.1//EN"
 "http://www.w3.org/Graphics/SVG/1.1/DTD/svg11.dtd">
<!-- Generated by graphviz version 2.47.3 (20210619.1520)
 -->
<!-- Title: dependencies Pages: 1 -->
<svg width="919pt" height="174pt"
 viewBox="0.00 0.00 919.00 173.80" xmlns="http://www.w3.org/2000/svg" xmlns:xlink="http://www.w3.org/1999/xlink">
<g id="graph0" class="graph" transform="scale(1 1) rotate(0) translate(4 169.8)">
<title>dependencies</title>
<polygon fill="white" stroke="transparent" points="-4,4 -4,-169.8 915,-169.8 915,4 -4,4"/>
<text text-anchor="middle" x="455.5" y="-8.2" font-family="sans-serif" font-size="14.00">dependencies</text>
<g id="clust1" class="cluster">
<title>cluster_CalculatorModule</title>
<polygon fill="none" stroke="black" stroke-dasharray="1,5" points="8,-32.8 8,-157.8 903,-157.8 903,-32.8 8,-32.8"/>
</g>
<g id="clust2" class="cluster">
<title>cluster_CalculatorModule_declarations</title>
<polygon fill="none" stroke="black" points="282,-40.8 282,-92.8 895,-92.8 895,-40.8 282,-40.8"/>
</g>
<g id="clust7" class="cluster">
<title>cluster_CalculatorModule_imports</title>
<polygon fill="none" stroke="black" points="16,-40.8 16,-92.8 274,-92.8 274,-40.8 16,-40.8"/>
</g>
<!-- BackLayComponent -->
<g id="node1" class="node">
<title>BackLayComponent</title>
<polygon fill="#ffffb3" stroke="black" points="886.87,-84.8 755.13,-84.8 755.13,-48.8 886.87,-48.8 886.87,-84.8"/>
<text text-anchor="middle" x="821" y="-62.6" font-family="Times,serif" font-size="14.00">BackLayComponent</text>
</g>
<!-- CalculatorModule -->
<g id="node5" class="node">
<title>CalculatorModule</title>
<polygon fill="#8dd3c7" stroke="black" points="500.86,-149.8 497.86,-153.8 476.86,-153.8 473.86,-149.8 383.14,-149.8 383.14,-113.8 500.86,-113.8 500.86,-149.8"/>
<text text-anchor="middle" x="442" y="-127.6" font-family="Times,serif" font-size="14.00">CalculatorModule</text>
</g>
<!-- BackLayComponent&#45;&gt;CalculatorModule -->
<g id="edge1" class="edge">
<title>BackLayComponent&#45;&gt;CalculatorModule</title>
<path fill="none" stroke="black" d="M821,-85.08C821,-106.12 821,-137.8 821,-137.8 821,-137.8 511.22,-137.8 511.22,-137.8"/>
<polygon fill="black" stroke="black" points="511.22,-134.3 501.22,-137.8 511.22,-141.3 511.22,-134.3"/>
</g>
<!-- CalculatorComponent -->
<g id="node2" class="node">
<title>CalculatorComponent</title>
<polygon fill="#ffffb3" stroke="black" points="736.65,-84.8 597.35,-84.8 597.35,-48.8 736.65,-48.8 736.65,-84.8"/>
<text text-anchor="middle" x="667" y="-62.6" font-family="Times,serif" font-size="14.00">CalculatorComponent</text>
</g>
<!-- CalculatorComponent&#45;&gt;CalculatorModule -->
<g id="edge2" class="edge">
<title>CalculatorComponent&#45;&gt;CalculatorModule</title>
<path fill="none" stroke="black" d="M667,-84.82C667,-102.17 667,-125.8 667,-125.8 667,-125.8 511.12,-125.8 511.12,-125.8"/>
<polygon fill="black" stroke="black" points="511.12,-122.3 501.12,-125.8 511.12,-129.3 511.12,-122.3"/>
</g>
<!-- LadderComponent -->
<g id="node3" class="node">
<title>LadderComponent</title>
<polygon fill="#ffffb3" stroke="black" points="579.47,-84.8 458.53,-84.8 458.53,-48.8 579.47,-48.8 579.47,-84.8"/>
<text text-anchor="middle" x="519" y="-62.6" font-family="Times,serif" font-size="14.00">LadderComponent</text>
</g>
<!-- LadderComponent&#45;&gt;CalculatorModule -->
<g id="edge3" class="edge">
<title>LadderComponent&#45;&gt;CalculatorModule</title>
<path fill="none" stroke="black" d="M479.72,-84.91C479.72,-84.91 479.72,-103.79 479.72,-103.79"/>
<polygon fill="black" stroke="black" points="476.22,-103.79 479.72,-113.79 483.22,-103.79 476.22,-103.79"/>
</g>
<!-- RiskRewardComponent -->
<g id="node4" class="node">
<title>RiskRewardComponent</title>
<polygon fill="#ffffb3" stroke="black" points="440.04,-84.8 289.96,-84.8 289.96,-48.8 440.04,-48.8 440.04,-84.8"/>
<text text-anchor="middle" x="365" y="-62.6" font-family="Times,serif" font-size="14.00">RiskRewardComponent</text>
</g>
<!-- RiskRewardComponent&#45;&gt;CalculatorModule -->
<g id="edge4" class="edge">
<title>RiskRewardComponent&#45;&gt;CalculatorModule</title>
<path fill="none" stroke="black" d="M411.67,-84.91C411.67,-84.91 411.67,-103.79 411.67,-103.79"/>
<polygon fill="black" stroke="black" points="408.17,-103.79 411.67,-113.79 415.17,-103.79 408.17,-103.79"/>
</g>
<!-- FeahterIconModule -->
<g id="node6" class="node">
<title>FeahterIconModule</title>
<polygon fill="#8dd3c7" stroke="black" points="266.4,-84.8 263.4,-88.8 242.4,-88.8 239.4,-84.8 139.6,-84.8 139.6,-48.8 266.4,-48.8 266.4,-84.8"/>
<text text-anchor="middle" x="203" y="-62.6" font-family="Times,serif" font-size="14.00">FeahterIconModule</text>
</g>
<!-- FeahterIconModule&#45;&gt;CalculatorModule -->
<g id="edge5" class="edge">
<title>FeahterIconModule&#45;&gt;CalculatorModule</title>
<path fill="none" stroke="black" d="M203,-84.82C203,-102.17 203,-125.8 203,-125.8 203,-125.8 372.92,-125.8 372.92,-125.8"/>
<polygon fill="black" stroke="black" points="372.92,-129.3 382.92,-125.8 372.92,-122.3 372.92,-129.3"/>
</g>
<!-- SharedModule -->
<g id="node7" class="node">
<title>SharedModule</title>
<polygon fill="#8dd3c7" stroke="black" points="122.42,-84.8 119.42,-88.8 98.42,-88.8 95.42,-84.8 23.58,-84.8 23.58,-48.8 122.42,-48.8 122.42,-84.8"/>
<text text-anchor="middle" x="73" y="-62.6" font-family="Times,serif" font-size="14.00">SharedModule</text>
</g>
<!-- SharedModule&#45;&gt;CalculatorModule -->
<g id="edge6" class="edge">
<title>SharedModule&#45;&gt;CalculatorModule</title>
<path fill="none" stroke="black" d="M73,-85.08C73,-106.12 73,-137.8 73,-137.8 73,-137.8 373.12,-137.8 373.12,-137.8"/>
<polygon fill="black" stroke="black" points="373.12,-141.3 383.12,-137.8 373.12,-134.3 373.12,-141.3"/>
</g>
</g>
</svg>
