<?xml version="1.0" encoding="UTF-8" standalone="no"?>
<!DOCTYPE svg PUBLIC "-//W3C//DTD SVG 1.1//EN"
 "http://www.w3.org/Graphics/SVG/1.1/DTD/svg11.dtd">
<!-- Generated by graphviz version 2.47.3 (20210619.1520)
 -->
<!-- Title: dependencies Pages: 1 -->
<svg width="1279pt" height="174pt"
 viewBox="0.00 0.00 1279.00 173.80" xmlns="http://www.w3.org/2000/svg" xmlns:xlink="http://www.w3.org/1999/xlink">
<g id="graph0" class="graph" transform="scale(1 1) rotate(0) translate(4 169.8)">
<title>dependencies</title>
<polygon fill="white" stroke="transparent" points="-4,4 -4,-169.8 1275,-169.8 1275,4 -4,4"/>
<text text-anchor="middle" x="635.5" y="-8.2" font-family="sans-serif" font-size="14.00">dependencies</text>
<g id="clust1" class="cluster">
<title>cluster_LiveModule</title>
<polygon fill="none" stroke="black" stroke-dasharray="1,5" points="8,-32.8 8,-157.8 1263,-157.8 1263,-32.8 8,-32.8"/>
</g>
<g id="clust2" class="cluster">
<title>cluster_LiveModule_declarations</title>
<polygon fill="none" stroke="black" points="282,-40.8 282,-92.8 1255,-92.8 1255,-40.8 282,-40.8"/>
</g>
<g id="clust8" class="cluster">
<title>cluster_LiveModule_imports</title>
<polygon fill="none" stroke="black" points="16,-40.8 16,-92.8 274,-92.8 274,-40.8 16,-40.8"/>
</g>
<!-- LiveDragulaComponent -->
<g id="node1" class="node">
<title>LiveDragulaComponent</title>
<polygon fill="#ffffb3" stroke="black" points="1247.08,-84.8 1094.92,-84.8 1094.92,-48.8 1247.08,-48.8 1247.08,-84.8"/>
<text text-anchor="middle" x="1171" y="-62.6" font-family="Times,serif" font-size="14.00">LiveDragulaComponent</text>
</g>
<!-- LiveModule -->
<g id="node6" class="node">
<title>LiveModule</title>
<polygon fill="#8dd3c7" stroke="black" points="579.71,-149.8 576.71,-153.8 555.71,-153.8 552.71,-149.8 494.29,-149.8 494.29,-113.8 579.71,-113.8 579.71,-149.8"/>
<text text-anchor="middle" x="537" y="-127.6" font-family="Times,serif" font-size="14.00">LiveModule</text>
</g>
<!-- LiveDragulaComponent&#45;&gt;LiveModule -->
<g id="edge1" class="edge">
<title>LiveDragulaComponent&#45;&gt;LiveModule</title>
<path fill="none" stroke="black" d="M1171,-85.09C1171,-107.01 1171,-140.8 1171,-140.8 1171,-140.8 590.08,-140.8 590.08,-140.8"/>
<polygon fill="black" stroke="black" points="590.08,-137.3 580.08,-140.8 590.08,-144.3 590.08,-137.3"/>
</g>
<!-- LiveDragulaElementComponent -->
<g id="node2" class="node">
<title>LiveDragulaElementComponent</title>
<polygon fill="#ffffb3" stroke="black" points="1077.23,-84.8 878.77,-84.8 878.77,-48.8 1077.23,-48.8 1077.23,-84.8"/>
<text text-anchor="middle" x="978" y="-62.6" font-family="Times,serif" font-size="14.00">LiveDragulaElementComponent</text>
</g>
<!-- LiveDragulaElementComponent&#45;&gt;LiveModule -->
<g id="edge2" class="edge">
<title>LiveDragulaElementComponent&#45;&gt;LiveModule</title>
<path fill="none" stroke="black" d="M978,-84.91C978,-104.14 978,-131.8 978,-131.8 978,-131.8 589.69,-131.8 589.69,-131.8"/>
<polygon fill="black" stroke="black" points="589.69,-128.3 579.69,-131.8 589.69,-135.3 589.69,-128.3"/>
</g>
<!-- LiveDragulaNoteDetailComponent -->
<g id="node3" class="node">
<title>LiveDragulaNoteDetailComponent</title>
<polygon fill="#ffffb3" stroke="black" points="861,-84.8 647,-84.8 647,-48.8 861,-48.8 861,-84.8"/>
<text text-anchor="middle" x="754" y="-62.6" font-family="Times,serif" font-size="14.00">LiveDragulaNoteDetailComponent</text>
</g>
<!-- LiveDragulaNoteDetailComponent&#45;&gt;LiveModule -->
<g id="edge3" class="edge">
<title>LiveDragulaNoteDetailComponent&#45;&gt;LiveModule</title>
<path fill="none" stroke="black" d="M754,-84.83C754,-101.2 754,-122.8 754,-122.8 754,-122.8 589.61,-122.8 589.61,-122.8"/>
<polygon fill="black" stroke="black" points="589.61,-119.3 579.61,-122.8 589.61,-126.3 589.61,-119.3"/>
</g>
<!-- LiveDragulaNotesComponent -->
<g id="node4" class="node">
<title>LiveDragulaNotesComponent</title>
<polygon fill="#ffffb3" stroke="black" points="629.23,-84.8 444.77,-84.8 444.77,-48.8 629.23,-48.8 629.23,-84.8"/>
<text text-anchor="middle" x="537" y="-62.6" font-family="Times,serif" font-size="14.00">LiveDragulaNotesComponent</text>
</g>
<!-- LiveDragulaNotesComponent&#45;&gt;LiveModule -->
<g id="edge4" class="edge">
<title>LiveDragulaNotesComponent&#45;&gt;LiveModule</title>
<path fill="none" stroke="black" d="M537,-84.91C537,-84.91 537,-103.79 537,-103.79"/>
<polygon fill="black" stroke="black" points="533.5,-103.79 537,-113.79 540.5,-103.79 533.5,-103.79"/>
</g>
<!-- MainLiveComponent -->
<g id="node5" class="node">
<title>MainLiveComponent</title>
<polygon fill="#ffffb3" stroke="black" points="426.04,-84.8 289.96,-84.8 289.96,-48.8 426.04,-48.8 426.04,-84.8"/>
<text text-anchor="middle" x="358" y="-62.6" font-family="Times,serif" font-size="14.00">MainLiveComponent</text>
</g>
<!-- MainLiveComponent&#45;&gt;LiveModule -->
<g id="edge5" class="edge">
<title>MainLiveComponent&#45;&gt;LiveModule</title>
<path fill="none" stroke="black" d="M358,-84.83C358,-101.2 358,-122.8 358,-122.8 358,-122.8 484.13,-122.8 484.13,-122.8"/>
<polygon fill="black" stroke="black" points="484.13,-126.3 494.13,-122.8 484.13,-119.3 484.13,-126.3"/>
</g>
<!-- FeahterIconModule -->
<g id="node7" class="node">
<title>FeahterIconModule</title>
<polygon fill="#8dd3c7" stroke="black" points="266.4,-84.8 263.4,-88.8 242.4,-88.8 239.4,-84.8 139.6,-84.8 139.6,-48.8 266.4,-48.8 266.4,-84.8"/>
<text text-anchor="middle" x="203" y="-62.6" font-family="Times,serif" font-size="14.00">FeahterIconModule</text>
</g>
<!-- FeahterIconModule&#45;&gt;LiveModule -->
<g id="edge6" class="edge">
<title>FeahterIconModule&#45;&gt;LiveModule</title>
<path fill="none" stroke="black" d="M203,-84.91C203,-104.14 203,-131.8 203,-131.8 203,-131.8 484.36,-131.8 484.36,-131.8"/>
<polygon fill="black" stroke="black" points="484.36,-135.3 494.36,-131.8 484.36,-128.3 484.36,-135.3"/>
</g>
<!-- SharedModule -->
<g id="node8" class="node">
<title>SharedModule</title>
<polygon fill="#8dd3c7" stroke="black" points="122.42,-84.8 119.42,-88.8 98.42,-88.8 95.42,-84.8 23.58,-84.8 23.58,-48.8 122.42,-48.8 122.42,-84.8"/>
<text text-anchor="middle" x="73" y="-62.6" font-family="Times,serif" font-size="14.00">SharedModule</text>
</g>
<!-- SharedModule&#45;&gt;LiveModule -->
<g id="edge7" class="edge">
<title>SharedModule&#45;&gt;LiveModule</title>
<path fill="none" stroke="black" d="M73,-85.09C73,-107.01 73,-140.8 73,-140.8 73,-140.8 484.18,-140.8 484.18,-140.8"/>
<polygon fill="black" stroke="black" points="484.18,-144.3 494.18,-140.8 484.18,-137.3 484.18,-144.3"/>
</g>
</g>
</svg>
