<?xml version="1.0" encoding="UTF-8" standalone="no"?>
<!DOCTYPE svg PUBLIC "-//W3C//DTD SVG 1.1//EN"
 "http://www.w3.org/Graphics/SVG/1.1/DTD/svg11.dtd">
<!-- Generated by graphviz version 2.47.3 (20210619.1520)
 -->
<!-- Title: dependencies Pages: 1 -->
<svg width="1027pt" height="174pt"
 viewBox="0.00 0.00 1027.00 173.80" xmlns="http://www.w3.org/2000/svg" xmlns:xlink="http://www.w3.org/1999/xlink">
<g id="graph0" class="graph" transform="scale(1 1) rotate(0) translate(4 169.8)">
<title>dependencies</title>
<polygon fill="white" stroke="transparent" points="-4,4 -4,-169.8 1023,-169.8 1023,4 -4,4"/>
<text text-anchor="middle" x="509.5" y="-8.2" font-family="sans-serif" font-size="14.00">dependencies</text>
<g id="clust1" class="cluster">
<title>cluster_LayoutModule</title>
<polygon fill="none" stroke="black" stroke-dasharray="1,5" points="8,-32.8 8,-157.8 1011,-157.8 1011,-32.8 8,-32.8"/>
</g>
<g id="clust8" class="cluster">
<title>cluster_LayoutModule_imports</title>
<polygon fill="none" stroke="black" points="745,-40.8 745,-92.8 1003,-92.8 1003,-40.8 745,-40.8"/>
</g>
<g id="clust2" class="cluster">
<title>cluster_LayoutModule_declarations</title>
<polygon fill="none" stroke="black" points="16,-40.8 16,-92.8 737,-92.8 737,-40.8 16,-40.8"/>
</g>
<!-- BaseComponent -->
<g id="node1" class="node">
<title>BaseComponent</title>
<polygon fill="#ffffb3" stroke="black" points="729.04,-84.8 620.96,-84.8 620.96,-48.8 729.04,-48.8 729.04,-84.8"/>
<text text-anchor="middle" x="675" y="-62.6" font-family="Times,serif" font-size="14.00">BaseComponent</text>
</g>
<!-- LayoutModule -->
<g id="node6" class="node">
<title>LayoutModule</title>
<polygon fill="#8dd3c7" stroke="black" points="571.71,-149.8 568.71,-153.8 547.71,-153.8 544.71,-149.8 472.29,-149.8 472.29,-113.8 571.71,-113.8 571.71,-149.8"/>
<text text-anchor="middle" x="522" y="-127.6" font-family="Times,serif" font-size="14.00">LayoutModule</text>
</g>
<!-- BaseComponent&#45;&gt;LayoutModule -->
<g id="edge1" class="edge">
<title>BaseComponent&#45;&gt;LayoutModule</title>
<path fill="none" stroke="black" d="M675,-84.83C675,-101.2 675,-122.8 675,-122.8 675,-122.8 581.67,-122.8 581.67,-122.8"/>
<polygon fill="black" stroke="black" points="581.67,-119.3 571.67,-122.8 581.67,-126.3 581.67,-119.3"/>
</g>
<!-- ContentAnimateDirective -->
<g id="node2" class="node">
<title>ContentAnimateDirective</title>
<polygon fill="#ffffb3" stroke="black" points="602.12,-84.8 441.88,-84.8 441.88,-48.8 602.12,-48.8 602.12,-84.8"/>
<text text-anchor="middle" x="522" y="-62.6" font-family="Times,serif" font-size="14.00">ContentAnimateDirective</text>
</g>
<!-- ContentAnimateDirective&#45;&gt;LayoutModule -->
<g id="edge2" class="edge">
<title>ContentAnimateDirective&#45;&gt;LayoutModule</title>
<path fill="none" stroke="black" d="M522,-84.91C522,-84.91 522,-103.79 522,-103.79"/>
<polygon fill="black" stroke="black" points="518.5,-103.79 522,-113.79 525.5,-103.79 518.5,-103.79"/>
</g>
<!-- FooterComponent -->
<g id="node3" class="node">
<title>FooterComponent</title>
<polygon fill="#ffffb3" stroke="black" points="423.88,-84.8 306.12,-84.8 306.12,-48.8 423.88,-48.8 423.88,-84.8"/>
<text text-anchor="middle" x="365" y="-62.6" font-family="Times,serif" font-size="14.00">FooterComponent</text>
</g>
<!-- FooterComponent&#45;&gt;LayoutModule -->
<g id="edge3" class="edge">
<title>FooterComponent&#45;&gt;LayoutModule</title>
<path fill="none" stroke="black" d="M365,-84.83C365,-101.2 365,-122.8 365,-122.8 365,-122.8 462.32,-122.8 462.32,-122.8"/>
<polygon fill="black" stroke="black" points="462.32,-126.3 472.32,-122.8 462.32,-119.3 462.32,-126.3"/>
</g>
<!-- NavbarComponent -->
<g id="node4" class="node">
<title>NavbarComponent</title>
<polygon fill="#ffffb3" stroke="black" points="288.03,-84.8 165.97,-84.8 165.97,-48.8 288.03,-48.8 288.03,-84.8"/>
<text text-anchor="middle" x="227" y="-62.6" font-family="Times,serif" font-size="14.00">NavbarComponent</text>
</g>
<!-- NavbarComponent&#45;&gt;LayoutModule -->
<g id="edge4" class="edge">
<title>NavbarComponent&#45;&gt;LayoutModule</title>
<path fill="none" stroke="black" d="M227,-84.91C227,-104.14 227,-131.8 227,-131.8 227,-131.8 462.29,-131.8 462.29,-131.8"/>
<polygon fill="black" stroke="black" points="462.29,-135.3 472.29,-131.8 462.29,-128.3 462.29,-135.3"/>
</g>
<!-- SidebarComponent -->
<g id="node5" class="node">
<title>SidebarComponent</title>
<polygon fill="#ffffb3" stroke="black" points="148.1,-84.8 23.9,-84.8 23.9,-48.8 148.1,-48.8 148.1,-84.8"/>
<text text-anchor="middle" x="86" y="-62.6" font-family="Times,serif" font-size="14.00">SidebarComponent</text>
</g>
<!-- SidebarComponent&#45;&gt;LayoutModule -->
<g id="edge5" class="edge">
<title>SidebarComponent&#45;&gt;LayoutModule</title>
<path fill="none" stroke="black" d="M86,-85.09C86,-107.01 86,-140.8 86,-140.8 86,-140.8 461.99,-140.8 461.99,-140.8"/>
<polygon fill="black" stroke="black" points="461.99,-144.3 471.99,-140.8 461.99,-137.3 461.99,-144.3"/>
</g>
<!-- FeahterIconModule -->
<g id="node7" class="node">
<title>FeahterIconModule</title>
<polygon fill="#8dd3c7" stroke="black" points="995.4,-84.8 992.4,-88.8 971.4,-88.8 968.4,-84.8 868.6,-84.8 868.6,-48.8 995.4,-48.8 995.4,-84.8"/>
<text text-anchor="middle" x="932" y="-62.6" font-family="Times,serif" font-size="14.00">FeahterIconModule</text>
</g>
<!-- FeahterIconModule&#45;&gt;LayoutModule -->
<g id="edge6" class="edge">
<title>FeahterIconModule&#45;&gt;LayoutModule</title>
<path fill="none" stroke="black" d="M932,-85.09C932,-107.01 932,-140.8 932,-140.8 932,-140.8 581.86,-140.8 581.86,-140.8"/>
<polygon fill="black" stroke="black" points="581.86,-137.3 571.86,-140.8 581.86,-144.3 581.86,-137.3"/>
</g>
<!-- SharedModule -->
<g id="node8" class="node">
<title>SharedModule</title>
<polygon fill="#8dd3c7" stroke="black" points="851.42,-84.8 848.42,-88.8 827.42,-88.8 824.42,-84.8 752.58,-84.8 752.58,-48.8 851.42,-48.8 851.42,-84.8"/>
<text text-anchor="middle" x="802" y="-62.6" font-family="Times,serif" font-size="14.00">SharedModule</text>
</g>
<!-- SharedModule&#45;&gt;LayoutModule -->
<g id="edge7" class="edge">
<title>SharedModule&#45;&gt;LayoutModule</title>
<path fill="none" stroke="black" d="M802,-84.91C802,-104.14 802,-131.8 802,-131.8 802,-131.8 581.74,-131.8 581.74,-131.8"/>
<polygon fill="black" stroke="black" points="581.74,-128.3 571.74,-131.8 581.74,-135.3 581.74,-128.3"/>
</g>
</g>
</svg>
