<?xml version="1.0" encoding="UTF-8" standalone="no"?>
<!DOCTYPE svg PUBLIC "-//W3C//DTD SVG 1.1//EN"
 "http://www.w3.org/Graphics/SVG/1.1/DTD/svg11.dtd">
<!-- Generated by graphviz version 2.47.3 (20210619.1520)
 -->
<!-- Title: dependencies Pages: 1 -->
<svg width="1355pt" height="174pt"
 viewBox="0.00 0.00 1355.00 173.80" xmlns="http://www.w3.org/2000/svg" xmlns:xlink="http://www.w3.org/1999/xlink">
<g id="graph0" class="graph" transform="scale(1 1) rotate(0) translate(4 169.8)">
<title>dependencies</title>
<polygon fill="white" stroke="transparent" points="-4,4 -4,-169.8 1351,-169.8 1351,4 -4,4"/>
<text text-anchor="middle" x="673.5" y="-8.2" font-family="sans-serif" font-size="14.00">dependencies</text>
<g id="clust1" class="cluster">
<title>cluster_DashboardModule</title>
<polygon fill="none" stroke="black" stroke-dasharray="1,5" points="8,-32.8 8,-157.8 1339,-157.8 1339,-32.8 8,-32.8"/>
</g>
<g id="clust2" class="cluster">
<title>cluster_DashboardModule_declarations</title>
<polygon fill="none" stroke="black" points="282,-40.8 282,-92.8 1331,-92.8 1331,-40.8 282,-40.8"/>
</g>
<g id="clust9" class="cluster">
<title>cluster_DashboardModule_imports</title>
<polygon fill="none" stroke="black" points="16,-40.8 16,-92.8 274,-92.8 274,-40.8 16,-40.8"/>
</g>
<!-- DashboardComponent -->
<g id="node1" class="node">
<title>DashboardComponent</title>
<polygon fill="#ffffb3" stroke="black" points="1322.97,-84.8 1181.03,-84.8 1181.03,-48.8 1322.97,-48.8 1322.97,-84.8"/>
<text text-anchor="middle" x="1252" y="-62.6" font-family="Times,serif" font-size="14.00">DashboardComponent</text>
</g>
<!-- DashboardModule -->
<g id="node7" class="node">
<title>DashboardModule</title>
<polygon fill="#8dd3c7" stroke="black" points="741.19,-149.8 738.19,-153.8 717.19,-153.8 714.19,-149.8 620.81,-149.8 620.81,-113.8 741.19,-113.8 741.19,-149.8"/>
<text text-anchor="middle" x="681" y="-127.6" font-family="Times,serif" font-size="14.00">DashboardModule</text>
</g>
<!-- DashboardComponent&#45;&gt;DashboardModule -->
<g id="edge1" class="edge">
<title>DashboardComponent&#45;&gt;DashboardModule</title>
<path fill="none" stroke="black" d="M1252,-85.09C1252,-107.01 1252,-140.8 1252,-140.8 1252,-140.8 751.3,-140.8 751.3,-140.8"/>
<polygon fill="black" stroke="black" points="751.3,-137.3 741.3,-140.8 751.3,-144.3 751.3,-137.3"/>
</g>
<!-- MarketStatsComponent -->
<g id="node2" class="node">
<title>MarketStatsComponent</title>
<polygon fill="#ffffb3" stroke="black" points="1163.48,-84.8 1014.52,-84.8 1014.52,-48.8 1163.48,-48.8 1163.48,-84.8"/>
<text text-anchor="middle" x="1089" y="-62.6" font-family="Times,serif" font-size="14.00">MarketStatsComponent</text>
</g>
<!-- MarketStatsComponent&#45;&gt;DashboardModule -->
<g id="edge2" class="edge">
<title>MarketStatsComponent&#45;&gt;DashboardModule</title>
<path fill="none" stroke="black" d="M1089,-84.91C1089,-104.14 1089,-131.8 1089,-131.8 1089,-131.8 751.2,-131.8 751.2,-131.8"/>
<polygon fill="black" stroke="black" points="751.2,-128.3 741.2,-131.8 751.2,-135.3 751.2,-128.3"/>
</g>
<!-- NotesStatsComponent -->
<g id="node3" class="node">
<title>NotesStatsComponent</title>
<polygon fill="#ffffb3" stroke="black" points="996.71,-84.8 855.29,-84.8 855.29,-48.8 996.71,-48.8 996.71,-84.8"/>
<text text-anchor="middle" x="926" y="-62.6" font-family="Times,serif" font-size="14.00">NotesStatsComponent</text>
</g>
<!-- NotesStatsComponent&#45;&gt;DashboardModule -->
<g id="edge3" class="edge">
<title>NotesStatsComponent&#45;&gt;DashboardModule</title>
<path fill="none" stroke="black" d="M926,-84.83C926,-101.2 926,-122.8 926,-122.8 926,-122.8 751.25,-122.8 751.25,-122.8"/>
<polygon fill="black" stroke="black" points="751.25,-119.3 741.25,-122.8 751.25,-126.3 751.25,-119.3"/>
</g>
<!-- ReportStatsComponent -->
<g id="node4" class="node">
<title>ReportStatsComponent</title>
<polygon fill="#ffffb3" stroke="black" points="837.16,-84.8 690.84,-84.8 690.84,-48.8 837.16,-48.8 837.16,-84.8"/>
<text text-anchor="middle" x="764" y="-62.6" font-family="Times,serif" font-size="14.00">ReportStatsComponent</text>
</g>
<!-- ReportStatsComponent&#45;&gt;DashboardModule -->
<g id="edge4" class="edge">
<title>ReportStatsComponent&#45;&gt;DashboardModule</title>
<path fill="none" stroke="black" d="M715.88,-84.91C715.88,-84.91 715.88,-103.79 715.88,-103.79"/>
<polygon fill="black" stroke="black" points="712.38,-103.79 715.88,-113.79 719.38,-103.79 712.38,-103.79"/>
</g>
<!-- RunnerStatsComponent -->
<g id="node5" class="node">
<title>RunnerStatsComponent</title>
<polygon fill="#ffffb3" stroke="black" points="672.77,-84.8 523.23,-84.8 523.23,-48.8 672.77,-48.8 672.77,-84.8"/>
<text text-anchor="middle" x="598" y="-62.6" font-family="Times,serif" font-size="14.00">RunnerStatsComponent</text>
</g>
<!-- RunnerStatsComponent&#45;&gt;DashboardModule -->
<g id="edge5" class="edge">
<title>RunnerStatsComponent&#45;&gt;DashboardModule</title>
<path fill="none" stroke="black" d="M646.89,-84.91C646.89,-84.91 646.89,-103.79 646.89,-103.79"/>
<polygon fill="black" stroke="black" points="643.39,-103.79 646.89,-113.79 650.39,-103.79 643.39,-103.79"/>
</g>
<!-- TennisTournamentStatsComponent -->
<g id="node6" class="node">
<title>TennisTournamentStatsComponent</title>
<polygon fill="#ffffb3" stroke="black" points="505.58,-84.8 290.42,-84.8 290.42,-48.8 505.58,-48.8 505.58,-84.8"/>
<text text-anchor="middle" x="398" y="-62.6" font-family="Times,serif" font-size="14.00">TennisTournamentStatsComponent</text>
</g>
<!-- TennisTournamentStatsComponent&#45;&gt;DashboardModule -->
<g id="edge6" class="edge">
<title>TennisTournamentStatsComponent&#45;&gt;DashboardModule</title>
<path fill="none" stroke="black" d="M398,-84.83C398,-101.2 398,-122.8 398,-122.8 398,-122.8 610.64,-122.8 610.64,-122.8"/>
<polygon fill="black" stroke="black" points="610.64,-126.3 620.64,-122.8 610.64,-119.3 610.64,-126.3"/>
</g>
<!-- FeahterIconModule -->
<g id="node8" class="node">
<title>FeahterIconModule</title>
<polygon fill="#8dd3c7" stroke="black" points="266.4,-84.8 263.4,-88.8 242.4,-88.8 239.4,-84.8 139.6,-84.8 139.6,-48.8 266.4,-48.8 266.4,-84.8"/>
<text text-anchor="middle" x="203" y="-62.6" font-family="Times,serif" font-size="14.00">FeahterIconModule</text>
</g>
<!-- FeahterIconModule&#45;&gt;DashboardModule -->
<g id="edge7" class="edge">
<title>FeahterIconModule&#45;&gt;DashboardModule</title>
<path fill="none" stroke="black" d="M203,-84.91C203,-104.14 203,-131.8 203,-131.8 203,-131.8 610.46,-131.8 610.46,-131.8"/>
<polygon fill="black" stroke="black" points="610.46,-135.3 620.46,-131.8 610.46,-128.3 610.46,-135.3"/>
</g>
<!-- SharedModule -->
<g id="node9" class="node">
<title>SharedModule</title>
<polygon fill="#8dd3c7" stroke="black" points="122.42,-84.8 119.42,-88.8 98.42,-88.8 95.42,-84.8 23.58,-84.8 23.58,-48.8 122.42,-48.8 122.42,-84.8"/>
<text text-anchor="middle" x="73" y="-62.6" font-family="Times,serif" font-size="14.00">SharedModule</text>
</g>
<!-- SharedModule&#45;&gt;DashboardModule -->
<g id="edge8" class="edge">
<title>SharedModule&#45;&gt;DashboardModule</title>
<path fill="none" stroke="black" d="M73,-85.09C73,-107.01 73,-140.8 73,-140.8 73,-140.8 610.76,-140.8 610.76,-140.8"/>
<polygon fill="black" stroke="black" points="610.76,-144.3 620.76,-140.8 610.76,-137.3 610.76,-144.3"/>
</g>
</g>
</svg>
