<?xml version="1.0" encoding="UTF-8" standalone="no"?>
<!DOCTYPE svg PUBLIC "-//W3C//DTD SVG 1.1//EN"
 "http://www.w3.org/Graphics/SVG/1.1/DTD/svg11.dtd">
<!-- Generated by graphviz version 2.47.3 (20210619.1520)
 -->
<!-- Title: dependencies Pages: 1 -->
<svg width="3508pt" height="247pt"
 viewBox="0.00 0.00 3508.00 246.80" xmlns="http://www.w3.org/2000/svg" xmlns:xlink="http://www.w3.org/1999/xlink">
<g id="graph0" class="graph" transform="scale(1 1) rotate(0) translate(4 242.8)">
<title>dependencies</title>
<polygon fill="white" stroke="transparent" points="-4,4 -4,-242.8 3504,-242.8 3504,4 -4,4"/>
<text text-anchor="middle" x="1750" y="-8.2" font-family="sans-serif" font-size="14.00">dependencies</text>
<g id="clust1" class="cluster">
<title>cluster_MarketsModule</title>
<polygon fill="none" stroke="black" stroke-dasharray="1,5" points="8,-32.8 8,-230.8 3492,-230.8 3492,-32.8 8,-32.8"/>
</g>
<g id="clust18" class="cluster">
<title>cluster_MarketsModule_imports</title>
<polygon fill="none" stroke="black" points="3226,-40.8 3226,-92.8 3484,-92.8 3484,-40.8 3226,-40.8"/>
</g>
<g id="clust2" class="cluster">
<title>cluster_MarketsModule_declarations</title>
<polygon fill="none" stroke="black" points="16,-40.8 16,-92.8 3218,-92.8 3218,-40.8 16,-40.8"/>
</g>
<g id="clust19" class="cluster">
<title>cluster_MarketsModule_exports</title>
<polygon fill="none" stroke="black" points="1637,-170.8 1637,-222.8 1847,-222.8 1847,-170.8 1637,-170.8"/>
</g>
<!-- MarketDetailPointComponent -->
<g id="node1" class="node">
<title>MarketDetailPointComponent</title>
<polygon fill="#ffffb3" stroke="black" points="3209.53,-84.8 3024.47,-84.8 3024.47,-48.8 3209.53,-48.8 3209.53,-84.8"/>
<text text-anchor="middle" x="3117" y="-62.6" font-family="Times,serif" font-size="14.00">MarketDetailPointComponent</text>
</g>
<!-- MarketsModule -->
<g id="node16" class="node">
<title>MarketsModule</title>
<polygon fill="#8dd3c7" stroke="black" points="1794.92,-149.8 1791.92,-153.8 1770.92,-153.8 1767.92,-149.8 1689.08,-149.8 1689.08,-113.8 1794.92,-113.8 1794.92,-149.8"/>
<text text-anchor="middle" x="1742" y="-127.6" font-family="Times,serif" font-size="14.00">MarketsModule</text>
</g>
<!-- MarketDetailPointComponent&#45;&gt;MarketsModule -->
<g id="edge1" class="edge">
<title>MarketDetailPointComponent&#45;&gt;MarketsModule</title>
<path fill="none" stroke="black" d="M3117,-85.08C3117,-106.12 3117,-137.8 3117,-137.8 3117,-137.8 1805.06,-137.8 1805.06,-137.8"/>
<polygon fill="black" stroke="black" points="1805.06,-134.3 1795.06,-137.8 1805.06,-141.3 1805.06,-134.3"/>
</g>
<!-- MarketDetailPricesAnalysisComponent -->
<g id="node2" class="node">
<title>MarketDetailPricesAnalysisComponent</title>
<polygon fill="#ffffb3" stroke="black" points="3006.66,-84.8 2767.34,-84.8 2767.34,-48.8 3006.66,-48.8 3006.66,-84.8"/>
<text text-anchor="middle" x="2887" y="-62.6" font-family="Times,serif" font-size="14.00">MarketDetailPricesAnalysisComponent</text>
</g>
<!-- MarketDetailPricesAnalysisComponent&#45;&gt;MarketsModule -->
<g id="edge2" class="edge">
<title>MarketDetailPricesAnalysisComponent&#45;&gt;MarketsModule</title>
<path fill="none" stroke="black" d="M2887,-85.11C2887,-104.95 2887,-133.8 2887,-133.8 2887,-133.8 1804.93,-133.8 1804.93,-133.8"/>
<polygon fill="black" stroke="black" points="1804.93,-130.3 1794.93,-133.8 1804.93,-137.3 1804.93,-130.3"/>
</g>
<!-- MarketDetailPricesComponent -->
<g id="node3" class="node">
<title>MarketDetailPricesComponent</title>
<polygon fill="#ffffb3" stroke="black" points="2749.17,-84.8 2558.83,-84.8 2558.83,-48.8 2749.17,-48.8 2749.17,-84.8"/>
<text text-anchor="middle" x="2654" y="-62.6" font-family="Times,serif" font-size="14.00">MarketDetailPricesComponent</text>
</g>
<!-- MarketDetailPricesComponent&#45;&gt;MarketsModule -->
<g id="edge3" class="edge">
<title>MarketDetailPricesComponent&#45;&gt;MarketsModule</title>
<path fill="none" stroke="black" d="M2654,-85.02C2654,-103.63 2654,-129.8 2654,-129.8 2654,-129.8 1804.97,-129.8 1804.97,-129.8"/>
<polygon fill="black" stroke="black" points="1804.98,-126.3 1794.97,-129.8 1804.97,-133.3 1804.98,-126.3"/>
</g>
<!-- MarketDetailSameMatchComponent -->
<g id="node4" class="node">
<title>MarketDetailSameMatchComponent</title>
<polygon fill="#ffffb3" stroke="black" points="2540.33,-84.8 2317.67,-84.8 2317.67,-48.8 2540.33,-48.8 2540.33,-84.8"/>
<text text-anchor="middle" x="2429" y="-62.6" font-family="Times,serif" font-size="14.00">MarketDetailSameMatchComponent</text>
</g>
<!-- MarketDetailSameMatchComponent&#45;&gt;MarketsModule -->
<g id="edge4" class="edge">
<title>MarketDetailSameMatchComponent&#45;&gt;MarketsModule</title>
<path fill="none" stroke="black" d="M2429,-84.82C2429,-102.17 2429,-125.8 2429,-125.8 2429,-125.8 1804.77,-125.8 1804.77,-125.8"/>
<polygon fill="black" stroke="black" points="1804.77,-122.3 1794.77,-125.8 1804.77,-129.3 1804.77,-122.3"/>
</g>
<!-- MarketsCalendarFilterComponent -->
<g id="node5" class="node">
<title>MarketsCalendarFilterComponent</title>
<polygon fill="#ffffb3" stroke="black" points="2300.06,-84.8 2091.94,-84.8 2091.94,-48.8 2300.06,-48.8 2300.06,-84.8"/>
<text text-anchor="middle" x="2196" y="-62.6" font-family="Times,serif" font-size="14.00">MarketsCalendarFilterComponent</text>
</g>
<!-- MarketsCalendarFilterComponent&#45;&gt;MarketsModule -->
<g id="edge5" class="edge">
<title>MarketsCalendarFilterComponent&#45;&gt;MarketsModule</title>
<path fill="none" stroke="black" d="M2196,-84.81C2196,-100.85 2196,-121.8 2196,-121.8 2196,-121.8 1804.97,-121.8 1804.97,-121.8"/>
<polygon fill="black" stroke="black" points="1804.97,-118.3 1794.97,-121.8 1804.97,-125.3 1804.97,-118.3"/>
</g>
<!-- MarketsCalendarMainComponent -->
<g id="node6" class="node">
<title>MarketsCalendarMainComponent</title>
<polygon fill="#ffffb3" stroke="black" points="2073.78,-84.8 1866.22,-84.8 1866.22,-48.8 2073.78,-48.8 2073.78,-84.8"/>
<text text-anchor="middle" x="1970" y="-62.6" font-family="Times,serif" font-size="14.00">MarketsCalendarMainComponent</text>
</g>
<!-- MarketsCalendarMainComponent&#45;&gt;MarketsModule -->
<g id="edge6" class="edge">
<title>MarketsCalendarMainComponent&#45;&gt;MarketsModule</title>
<path fill="none" stroke="black" d="M1970,-84.92C1970,-99.58 1970,-117.8 1970,-117.8 1970,-117.8 1804.88,-117.8 1804.88,-117.8"/>
<polygon fill="black" stroke="black" points="1804.88,-114.3 1794.88,-117.8 1804.88,-121.3 1804.88,-114.3"/>
</g>
<!-- MarketsCalendarPickerComponent -->
<g id="node7" class="node">
<title>MarketsCalendarPickerComponent</title>
<polygon fill="#ffffb3" stroke="black" points="1849,-84.8 1635,-84.8 1635,-48.8 1849,-48.8 1849,-84.8"/>
<text text-anchor="middle" x="1742" y="-62.6" font-family="Times,serif" font-size="14.00">MarketsCalendarPickerComponent</text>
</g>
<!-- MarketsCalendarPickerComponent&#45;&gt;MarketsModule -->
<g id="edge7" class="edge">
<title>MarketsCalendarPickerComponent&#45;&gt;MarketsModule</title>
<path fill="none" stroke="black" d="M1742,-84.91C1742,-84.91 1742,-103.79 1742,-103.79"/>
<polygon fill="black" stroke="black" points="1738.5,-103.79 1742,-113.79 1745.5,-103.79 1738.5,-103.79"/>
</g>
<!-- MarketsCalendarRangeComponent -->
<g id="node8" class="node">
<title>MarketsCalendarRangeComponent</title>
<polygon fill="#ffffb3" stroke="black" points="1618,-84.8 1404,-84.8 1404,-48.8 1618,-48.8 1618,-84.8"/>
<text text-anchor="middle" x="1511" y="-62.6" font-family="Times,serif" font-size="14.00">MarketsCalendarRangeComponent</text>
</g>
<!-- MarketsCalendarRangeComponent&#45;&gt;MarketsModule -->
<g id="edge8" class="edge">
<title>MarketsCalendarRangeComponent&#45;&gt;MarketsModule</title>
<path fill="none" stroke="black" d="M1511,-84.92C1511,-99.58 1511,-117.8 1511,-117.8 1511,-117.8 1679,-117.8 1679,-117.8"/>
<polygon fill="black" stroke="black" points="1679,-121.3 1689,-117.8 1679,-114.3 1679,-121.3"/>
</g>
<!-- MarketsDataTableListComponent -->
<g id="node9" class="node">
<title>MarketsDataTableListComponent</title>
<polygon fill="#ffffb3" stroke="black" points="1386.78,-84.8 1179.22,-84.8 1179.22,-48.8 1386.78,-48.8 1386.78,-84.8"/>
<text text-anchor="middle" x="1283" y="-62.6" font-family="Times,serif" font-size="14.00">MarketsDataTableListComponent</text>
</g>
<!-- MarketsDataTableListComponent&#45;&gt;MarketsModule -->
<g id="edge9" class="edge">
<title>MarketsDataTableListComponent&#45;&gt;MarketsModule</title>
<path fill="none" stroke="black" d="M1283,-84.81C1283,-100.85 1283,-121.8 1283,-121.8 1283,-121.8 1678.9,-121.8 1678.9,-121.8"/>
<polygon fill="black" stroke="black" points="1678.9,-125.3 1688.9,-121.8 1678.9,-118.3 1678.9,-125.3"/>
</g>
<!-- MarketsDetailComponent -->
<g id="node10" class="node">
<title>MarketsDetailComponent</title>
<polygon fill="#ffffb3" stroke="black" points="1161.91,-84.8 1000.09,-84.8 1000.09,-48.8 1161.91,-48.8 1161.91,-84.8"/>
<text text-anchor="middle" x="1081" y="-62.6" font-family="Times,serif" font-size="14.00">MarketsDetailComponent</text>
</g>
<!-- MarketsDetailComponent&#45;&gt;MarketsModule -->
<g id="edge10" class="edge">
<title>MarketsDetailComponent&#45;&gt;MarketsModule</title>
<path fill="none" stroke="black" d="M1081,-84.82C1081,-102.17 1081,-125.8 1081,-125.8 1081,-125.8 1679.02,-125.8 1679.02,-125.8"/>
<polygon fill="black" stroke="black" points="1679.02,-129.3 1689.02,-125.8 1679.02,-122.3 1679.02,-129.3"/>
</g>
<!-- MarketsListComponent -->
<g id="node11" class="node">
<title>MarketsListComponent</title>
<polygon fill="#ffffb3" stroke="black" points="982.48,-84.8 833.52,-84.8 833.52,-48.8 982.48,-48.8 982.48,-84.8"/>
<text text-anchor="middle" x="908" y="-62.6" font-family="Times,serif" font-size="14.00">MarketsListComponent</text>
</g>
<!-- MarketsListComponent&#45;&gt;MarketsModule -->
<g id="edge11" class="edge">
<title>MarketsListComponent&#45;&gt;MarketsModule</title>
<path fill="none" stroke="black" d="M908,-85.02C908,-103.63 908,-129.8 908,-129.8 908,-129.8 1679.2,-129.8 1679.2,-129.8"/>
<polygon fill="black" stroke="black" points="1679.2,-133.3 1689.2,-129.8 1679.2,-126.3 1679.2,-133.3"/>
</g>
<!-- MarketsStatsMainComponent -->
<g id="node12" class="node">
<title>MarketsStatsMainComponent</title>
<polygon fill="#ffffb3" stroke="black" points="815.97,-84.8 632.03,-84.8 632.03,-48.8 815.97,-48.8 815.97,-84.8"/>
<text text-anchor="middle" x="724" y="-62.6" font-family="Times,serif" font-size="14.00">MarketsStatsMainComponent</text>
</g>
<!-- MarketsStatsMainComponent&#45;&gt;MarketsModule -->
<g id="edge12" class="edge">
<title>MarketsStatsMainComponent&#45;&gt;MarketsModule</title>
<path fill="none" stroke="black" d="M724,-85.11C724,-104.95 724,-133.8 724,-133.8 724,-133.8 1679.06,-133.8 1679.06,-133.8"/>
<polygon fill="black" stroke="black" points="1679.06,-137.3 1689.06,-133.8 1679.06,-130.3 1679.06,-137.3"/>
</g>
<!-- MarketsStatsNumbersComponent -->
<g id="node13" class="node">
<title>MarketsStatsNumbersComponent</title>
<polygon fill="#ffffb3" stroke="black" points="613.74,-84.8 408.26,-84.8 408.26,-48.8 613.74,-48.8 613.74,-84.8"/>
<text text-anchor="middle" x="511" y="-62.6" font-family="Times,serif" font-size="14.00">MarketsStatsNumbersComponent</text>
</g>
<!-- MarketsStatsNumbersComponent&#45;&gt;MarketsModule -->
<g id="edge13" class="edge">
<title>MarketsStatsNumbersComponent&#45;&gt;MarketsModule</title>
<path fill="none" stroke="black" d="M511,-85.08C511,-106.12 511,-137.8 511,-137.8 511,-137.8 1679.11,-137.8 1679.11,-137.8"/>
<polygon fill="black" stroke="black" points="1679.11,-141.3 1689.11,-137.8 1679.11,-134.3 1679.11,-141.3"/>
</g>
<!-- MarketsStatsSportsComponent -->
<g id="node14" class="node">
<title>MarketsStatsSportsComponent</title>
<polygon fill="#ffffb3" stroke="black" points="390.2,-84.8 199.8,-84.8 199.8,-48.8 390.2,-48.8 390.2,-84.8"/>
<text text-anchor="middle" x="295" y="-62.6" font-family="Times,serif" font-size="14.00">MarketsStatsSportsComponent</text>
</g>
<!-- MarketsStatsSportsComponent&#45;&gt;MarketsModule -->
<g id="edge14" class="edge">
<title>MarketsStatsSportsComponent&#45;&gt;MarketsModule</title>
<path fill="none" stroke="black" d="M295,-84.96C295,-107.15 295,-141.8 295,-141.8 295,-141.8 1679.22,-141.8 1679.22,-141.8"/>
<polygon fill="black" stroke="black" points="1679.22,-145.3 1689.22,-141.8 1679.22,-138.3 1679.22,-145.3"/>
</g>
<!-- MarketsViewComponent -->
<g id="node15" class="node">
<title>MarketsViewComponent</title>
<polygon fill="#ffffb3" stroke="black" points="181.52,-84.8 24.48,-84.8 24.48,-48.8 181.52,-48.8 181.52,-84.8"/>
<text text-anchor="middle" x="103" y="-62.6" font-family="Times,serif" font-size="14.00">MarketsViewComponent</text>
</g>
<!-- MarketsViewComponent&#45;&gt;MarketsModule -->
<g id="edge15" class="edge">
<title>MarketsViewComponent&#45;&gt;MarketsModule</title>
<path fill="none" stroke="black" d="M103,-85.12C103,-108.46 103,-145.8 103,-145.8 103,-145.8 1678.86,-145.8 1678.86,-145.8"/>
<polygon fill="black" stroke="black" points="1678.86,-149.3 1688.86,-145.8 1678.86,-142.3 1678.86,-149.3"/>
</g>
<!-- MarketsStatsSportsComponent  -->
<g id="node19" class="node">
<title>MarketsStatsSportsComponent </title>
<polygon fill="#fb8072" stroke="black" points="1838.7,-214.8 1645.3,-214.8 1645.3,-178.8 1838.7,-178.8 1838.7,-214.8"/>
<text text-anchor="middle" x="1742" y="-192.6" font-family="Times,serif" font-size="14.00">MarketsStatsSportsComponent </text>
</g>
<!-- MarketsModule&#45;&gt;MarketsStatsSportsComponent  -->
<g id="edge18" class="edge">
<title>MarketsModule&#45;&gt;MarketsStatsSportsComponent </title>
<path fill="none" stroke="black" stroke-dasharray="5,2" d="M1742,-149.91C1742,-149.91 1742,-168.79 1742,-168.79"/>
<polygon fill="black" stroke="black" points="1738.5,-168.79 1742,-178.79 1745.5,-168.79 1738.5,-168.79"/>
</g>
<!-- FeahterIconModule -->
<g id="node17" class="node">
<title>FeahterIconModule</title>
<polygon fill="#8dd3c7" stroke="black" points="3476.4,-84.8 3473.4,-88.8 3452.4,-88.8 3449.4,-84.8 3349.6,-84.8 3349.6,-48.8 3476.4,-48.8 3476.4,-84.8"/>
<text text-anchor="middle" x="3413" y="-62.6" font-family="Times,serif" font-size="14.00">FeahterIconModule</text>
</g>
<!-- FeahterIconModule&#45;&gt;MarketsModule -->
<g id="edge16" class="edge">
<title>FeahterIconModule&#45;&gt;MarketsModule</title>
<path fill="none" stroke="black" d="M3413,-85.12C3413,-108.46 3413,-145.8 3413,-145.8 3413,-145.8 1804.77,-145.8 1804.77,-145.8"/>
<polygon fill="black" stroke="black" points="1804.77,-142.3 1794.77,-145.8 1804.77,-149.3 1804.77,-142.3"/>
</g>
<!-- SharedModule -->
<g id="node18" class="node">
<title>SharedModule</title>
<polygon fill="#8dd3c7" stroke="black" points="3332.42,-84.8 3329.42,-88.8 3308.42,-88.8 3305.42,-84.8 3233.58,-84.8 3233.58,-48.8 3332.42,-48.8 3332.42,-84.8"/>
<text text-anchor="middle" x="3283" y="-62.6" font-family="Times,serif" font-size="14.00">SharedModule</text>
</g>
<!-- SharedModule&#45;&gt;MarketsModule -->
<g id="edge17" class="edge">
<title>SharedModule&#45;&gt;MarketsModule</title>
<path fill="none" stroke="black" d="M3283,-84.96C3283,-107.15 3283,-141.8 3283,-141.8 3283,-141.8 1805.04,-141.8 1805.04,-141.8"/>
<polygon fill="black" stroke="black" points="1805.04,-138.3 1795.04,-141.8 1805.04,-145.3 1805.04,-138.3"/>
</g>
</g>
</svg>
