<?xml version="1.0" encoding="UTF-8" standalone="no"?>
<!DOCTYPE svg PUBLIC "-//W3C//DTD SVG 1.1//EN"
 "http://www.w3.org/Graphics/SVG/1.1/DTD/svg11.dtd">
<!-- Generated by graphviz version 2.47.3 (20210619.1520)
 -->
<!-- Title: dependencies Pages: 1 -->
<svg width="1032pt" height="174pt"
 viewBox="0.00 0.00 1032.00 173.80" xmlns="http://www.w3.org/2000/svg" xmlns:xlink="http://www.w3.org/1999/xlink">
<g id="graph0" class="graph" transform="scale(1 1) rotate(0) translate(4 169.8)">
<title>dependencies</title>
<polygon fill="white" stroke="transparent" points="-4,4 -4,-169.8 1028,-169.8 1028,4 -4,4"/>
<text text-anchor="middle" x="512" y="-8.2" font-family="sans-serif" font-size="14.00">dependencies</text>
<g id="clust1" class="cluster">
<title>cluster_DocumentationModule</title>
<polygon fill="none" stroke="black" stroke-dasharray="1,5" points="8,-32.8 8,-157.8 1016,-157.8 1016,-32.8 8,-32.8"/>
</g>
<g id="clust2" class="cluster">
<title>cluster_DocumentationModule_declarations</title>
<polygon fill="none" stroke="black" points="166,-40.8 166,-92.8 1008,-92.8 1008,-40.8 166,-40.8"/>
</g>
<g id="clust7" class="cluster">
<title>cluster_DocumentationModule_imports</title>
<polygon fill="none" stroke="black" points="16,-40.8 16,-92.8 158,-92.8 158,-40.8 16,-40.8"/>
</g>
<!-- DocumentationComponent -->
<g id="node1" class="node">
<title>DocumentationComponent</title>
<polygon fill="#ffffb3" stroke="black" points="999.65,-84.8 832.35,-84.8 832.35,-48.8 999.65,-48.8 999.65,-84.8"/>
<text text-anchor="middle" x="916" y="-62.6" font-family="Times,serif" font-size="14.00">DocumentationComponent</text>
</g>
<!-- DocumentationModule -->
<g id="node5" class="node">
<title>DocumentationModule</title>
<polygon fill="#8dd3c7" stroke="black" points="575.86,-149.8 572.86,-153.8 551.86,-153.8 548.86,-149.8 430.14,-149.8 430.14,-113.8 575.86,-113.8 575.86,-149.8"/>
<text text-anchor="middle" x="503" y="-127.6" font-family="Times,serif" font-size="14.00">DocumentationModule</text>
</g>
<!-- DocumentationComponent&#45;&gt;DocumentationModule -->
<g id="edge1" class="edge">
<title>DocumentationComponent&#45;&gt;DocumentationModule</title>
<path fill="none" stroke="black" d="M916,-85.08C916,-106.12 916,-137.8 916,-137.8 916,-137.8 585.89,-137.8 585.89,-137.8"/>
<polygon fill="black" stroke="black" points="585.89,-134.3 575.89,-137.8 585.89,-141.3 585.89,-134.3"/>
</g>
<!-- NoteDocumentationComponent -->
<g id="node2" class="node">
<title>NoteDocumentationComponent</title>
<polygon fill="#ffffb3" stroke="black" points="814.36,-84.8 619.64,-84.8 619.64,-48.8 814.36,-48.8 814.36,-84.8"/>
<text text-anchor="middle" x="717" y="-62.6" font-family="Times,serif" font-size="14.00">NoteDocumentationComponent</text>
</g>
<!-- NoteDocumentationComponent&#45;&gt;DocumentationModule -->
<g id="edge2" class="edge">
<title>NoteDocumentationComponent&#45;&gt;DocumentationModule</title>
<path fill="none" stroke="black" d="M717,-84.82C717,-102.17 717,-125.8 717,-125.8 717,-125.8 586.05,-125.8 586.05,-125.8"/>
<polygon fill="black" stroke="black" points="586.05,-122.3 576.05,-125.8 586.05,-129.3 586.05,-122.3"/>
</g>
<!-- TodoDocumentationComponent -->
<g id="node3" class="node">
<title>TodoDocumentationComponent</title>
<polygon fill="#ffffb3" stroke="black" points="601.7,-84.8 404.3,-84.8 404.3,-48.8 601.7,-48.8 601.7,-84.8"/>
<text text-anchor="middle" x="503" y="-62.6" font-family="Times,serif" font-size="14.00">TodoDocumentationComponent</text>
</g>
<!-- TodoDocumentationComponent&#45;&gt;DocumentationModule -->
<g id="edge3" class="edge">
<title>TodoDocumentationComponent&#45;&gt;DocumentationModule</title>
<path fill="none" stroke="black" d="M503,-84.91C503,-84.91 503,-103.79 503,-103.79"/>
<polygon fill="black" stroke="black" points="499.5,-103.79 503,-113.79 506.5,-103.79 499.5,-103.79"/>
</g>
<!-- VersionDocumentationComponent -->
<g id="node4" class="node">
<title>VersionDocumentationComponent</title>
<polygon fill="#ffffb3" stroke="black" points="385.96,-84.8 174.04,-84.8 174.04,-48.8 385.96,-48.8 385.96,-84.8"/>
<text text-anchor="middle" x="280" y="-62.6" font-family="Times,serif" font-size="14.00">VersionDocumentationComponent</text>
</g>
<!-- VersionDocumentationComponent&#45;&gt;DocumentationModule -->
<g id="edge4" class="edge">
<title>VersionDocumentationComponent&#45;&gt;DocumentationModule</title>
<path fill="none" stroke="black" d="M280,-84.82C280,-102.17 280,-125.8 280,-125.8 280,-125.8 419.98,-125.8 419.98,-125.8"/>
<polygon fill="black" stroke="black" points="419.98,-129.3 429.98,-125.8 419.98,-122.3 419.98,-129.3"/>
</g>
<!-- FeahterIconModule -->
<g id="node6" class="node">
<title>FeahterIconModule</title>
<polygon fill="#8dd3c7" stroke="black" points="150.4,-84.8 147.4,-88.8 126.4,-88.8 123.4,-84.8 23.6,-84.8 23.6,-48.8 150.4,-48.8 150.4,-84.8"/>
<text text-anchor="middle" x="87" y="-62.6" font-family="Times,serif" font-size="14.00">FeahterIconModule</text>
</g>
<!-- FeahterIconModule&#45;&gt;DocumentationModule -->
<g id="edge5" class="edge">
<title>FeahterIconModule&#45;&gt;DocumentationModule</title>
<path fill="none" stroke="black" d="M87,-85.08C87,-106.12 87,-137.8 87,-137.8 87,-137.8 420.06,-137.8 420.06,-137.8"/>
<polygon fill="black" stroke="black" points="420.06,-141.3 430.06,-137.8 420.06,-134.3 420.06,-141.3"/>
</g>
</g>
</svg>
