<?xml version="1.0" encoding="UTF-8" standalone="no"?>
<!DOCTYPE svg PUBLIC "-//W3C//DTD SVG 1.1//EN"
 "http://www.w3.org/Graphics/SVG/1.1/DTD/svg11.dtd">
<!-- Generated by graphviz version 2.47.3 (20210619.1520)
 -->
<!-- Title: dependencies Pages: 1 -->
<svg width="884pt" height="247pt"
 viewBox="0.00 0.00 884.00 246.80" xmlns="http://www.w3.org/2000/svg" xmlns:xlink="http://www.w3.org/1999/xlink">
<g id="graph0" class="graph" transform="scale(1 1) rotate(0) translate(4 242.8)">
<title>dependencies</title>
<polygon fill="white" stroke="transparent" points="-4,4 -4,-242.8 880,-242.8 880,4 -4,4"/>
<text text-anchor="middle" x="438" y="-8.2" font-family="sans-serif" font-size="14.00">dependencies</text>
<g id="clust1" class="cluster">
<title>cluster_AppModule</title>
<polygon fill="none" stroke="black" stroke-dasharray="1,5" points="8,-32.8 8,-230.8 868,-230.8 868,-32.8 8,-32.8"/>
</g>
<g id="clust2" class="cluster">
<title>cluster_AppModule_declarations</title>
<polygon fill="none" stroke="black" points="582,-40.8 582,-92.8 860,-92.8 860,-40.8 582,-40.8"/>
</g>
<g id="clust5" class="cluster">
<title>cluster_AppModule_imports</title>
<polygon fill="none" stroke="black" points="196,-40.8 196,-92.8 574,-92.8 574,-40.8 196,-40.8"/>
</g>
<g id="clust7" class="cluster">
<title>cluster_AppModule_bootstrap</title>
<polygon fill="none" stroke="black" points="374,-170.8 374,-222.8 498,-222.8 498,-170.8 374,-170.8"/>
</g>
<g id="clust8" class="cluster">
<title>cluster_AppModule_providers</title>
<polygon fill="none" stroke="black" points="16,-40.8 16,-92.8 188,-92.8 188,-40.8 16,-40.8"/>
</g>
<!-- AppComponent -->
<g id="node1" class="node">
<title>AppComponent</title>
<polygon fill="#ffffb3" stroke="black" points="851.94,-84.8 746.06,-84.8 746.06,-48.8 851.94,-48.8 851.94,-84.8"/>
<text text-anchor="middle" x="799" y="-62.6" font-family="Times,serif" font-size="14.00">AppComponent</text>
</g>
<!-- AppModule -->
<g id="node3" class="node">
<title>AppModule</title>
<polygon fill="#8dd3c7" stroke="black" points="477.66,-149.8 474.66,-153.8 453.66,-153.8 450.66,-149.8 394.34,-149.8 394.34,-113.8 477.66,-113.8 477.66,-149.8"/>
<text text-anchor="middle" x="436" y="-127.6" font-family="Times,serif" font-size="14.00">AppModule</text>
</g>
<!-- AppComponent&#45;&gt;AppModule -->
<g id="edge1" class="edge">
<title>AppComponent&#45;&gt;AppModule</title>
<path fill="none" stroke="black" d="M799,-85.08C799,-106.12 799,-137.8 799,-137.8 799,-137.8 488,-137.8 488,-137.8"/>
<polygon fill="black" stroke="black" points="488,-134.3 478,-137.8 488,-141.3 488,-134.3"/>
</g>
<!-- ErrorPageComponent -->
<g id="node2" class="node">
<title>ErrorPageComponent</title>
<polygon fill="#ffffb3" stroke="black" points="728.08,-84.8 589.92,-84.8 589.92,-48.8 728.08,-48.8 728.08,-84.8"/>
<text text-anchor="middle" x="659" y="-62.6" font-family="Times,serif" font-size="14.00">ErrorPageComponent</text>
</g>
<!-- ErrorPageComponent&#45;&gt;AppModule -->
<g id="edge2" class="edge">
<title>ErrorPageComponent&#45;&gt;AppModule</title>
<path fill="none" stroke="black" d="M659,-84.82C659,-102.17 659,-125.8 659,-125.8 659,-125.8 487.68,-125.8 487.68,-125.8"/>
<polygon fill="black" stroke="black" points="487.68,-122.3 477.68,-125.8 487.68,-129.3 487.68,-122.3"/>
</g>
<!-- AppComponent  -->
<g id="node7" class="node">
<title>AppComponent </title>
<polygon fill="#80b1d3" stroke="black" points="490.44,-214.8 381.56,-214.8 381.56,-178.8 490.44,-178.8 490.44,-214.8"/>
<text text-anchor="middle" x="436" y="-192.6" font-family="Times,serif" font-size="14.00">AppComponent </text>
</g>
<!-- AppModule&#45;&gt;AppComponent  -->
<g id="edge6" class="edge">
<title>AppModule&#45;&gt;AppComponent </title>
<path fill="none" stroke="black" stroke-dasharray="1,5" d="M436,-149.91C436,-149.91 436,-168.79 436,-168.79"/>
<polygon fill="black" stroke="black" points="432.5,-168.79 436,-178.79 439.5,-168.79 432.5,-168.79"/>
</g>
<!-- AppRoutingModule -->
<g id="node4" class="node">
<title>AppRoutingModule</title>
<polygon fill="#8dd3c7" stroke="black" points="566.27,-84.8 563.27,-88.8 542.27,-88.8 539.27,-84.8 437.73,-84.8 437.73,-48.8 566.27,-48.8 566.27,-84.8"/>
<text text-anchor="middle" x="502" y="-62.6" font-family="Times,serif" font-size="14.00">AppRoutingModule</text>
</g>
<!-- AppRoutingModule&#45;&gt;AppModule -->
<g id="edge3" class="edge">
<title>AppRoutingModule&#45;&gt;AppModule</title>
<path fill="none" stroke="black" d="M457.72,-84.91C457.72,-84.91 457.72,-103.79 457.72,-103.79"/>
<polygon fill="black" stroke="black" points="454.22,-103.79 457.72,-113.79 461.22,-103.79 454.22,-103.79"/>
</g>
<!-- LayoutModule -->
<g id="node5" class="node">
<title>LayoutModule</title>
<polygon fill="#8dd3c7" stroke="black" points="419.71,-84.8 416.71,-88.8 395.71,-88.8 392.71,-84.8 320.29,-84.8 320.29,-48.8 419.71,-48.8 419.71,-84.8"/>
<text text-anchor="middle" x="370" y="-62.6" font-family="Times,serif" font-size="14.00">LayoutModule</text>
</g>
<!-- LayoutModule&#45;&gt;AppModule -->
<g id="edge4" class="edge">
<title>LayoutModule&#45;&gt;AppModule</title>
<path fill="none" stroke="black" d="M406.89,-84.91C406.89,-84.91 406.89,-103.79 406.89,-103.79"/>
<polygon fill="black" stroke="black" points="403.39,-103.79 406.89,-113.79 410.39,-103.79 403.39,-103.79"/>
</g>
<!-- SharedModule -->
<g id="node6" class="node">
<title>SharedModule</title>
<polygon fill="#8dd3c7" stroke="black" points="302.42,-84.8 299.42,-88.8 278.42,-88.8 275.42,-84.8 203.58,-84.8 203.58,-48.8 302.42,-48.8 302.42,-84.8"/>
<text text-anchor="middle" x="253" y="-62.6" font-family="Times,serif" font-size="14.00">SharedModule</text>
</g>
<!-- SharedModule&#45;&gt;AppModule -->
<g id="edge5" class="edge">
<title>SharedModule&#45;&gt;AppModule</title>
<path fill="none" stroke="black" d="M253,-84.82C253,-102.17 253,-125.8 253,-125.8 253,-125.8 384.02,-125.8 384.02,-125.8"/>
<polygon fill="black" stroke="black" points="384.02,-129.3 394.02,-125.8 384.02,-122.3 384.02,-129.3"/>
</g>
<!-- TokenInterceptor -->
<g id="node8" class="node">
<title>TokenInterceptor</title>
<ellipse fill="#fdb462" stroke="black" cx="102" cy="-66.8" rx="78.13" ry="18"/>
<text text-anchor="middle" x="102" y="-62.6" font-family="Times,serif" font-size="14.00">TokenInterceptor</text>
</g>
<!-- TokenInterceptor&#45;&gt;AppModule -->
<g id="edge7" class="edge">
<title>TokenInterceptor&#45;&gt;AppModule</title>
<path fill="none" stroke="black" d="M102,-85.08C102,-106.12 102,-137.8 102,-137.8 102,-137.8 384.04,-137.8 384.04,-137.8"/>
<polygon fill="black" stroke="black" points="384.04,-141.3 394.04,-137.8 384.04,-134.3 384.04,-141.3"/>
</g>
</g>
</svg>
