<?xml version="1.0" encoding="UTF-8" standalone="no"?>
<!DOCTYPE svg PUBLIC "-//W3C//DTD SVG 1.1//EN"
 "http://www.w3.org/Graphics/SVG/1.1/DTD/svg11.dtd">
<!-- Generated by graphviz version 2.47.3 (20210619.1520)
 -->
<!-- Title: dependencies Pages: 1 -->
<svg width="996pt" height="174pt"
 viewBox="0.00 0.00 996.00 173.80" xmlns="http://www.w3.org/2000/svg" xmlns:xlink="http://www.w3.org/1999/xlink">
<g id="graph0" class="graph" transform="scale(1 1) rotate(0) translate(4 169.8)">
<title>dependencies</title>
<polygon fill="white" stroke="transparent" points="-4,4 -4,-169.8 992,-169.8 992,4 -4,4"/>
<text text-anchor="middle" x="494" y="-8.2" font-family="sans-serif" font-size="14.00">dependencies</text>
<g id="clust1" class="cluster">
<title>cluster_DbManagerModule</title>
<polygon fill="none" stroke="black" stroke-dasharray="1,5" points="8,-32.8 8,-157.8 980,-157.8 980,-32.8 8,-32.8"/>
</g>
<g id="clust2" class="cluster">
<title>cluster_DbManagerModule_declarations</title>
<polygon fill="none" stroke="black" points="16,-40.8 16,-92.8 972,-92.8 972,-40.8 16,-40.8"/>
</g>
<!-- DbManagerManagerComponent -->
<g id="node1" class="node">
<title>DbManagerManagerComponent</title>
<polygon fill="#ffffb3" stroke="black" points="963.94,-84.8 766.06,-84.8 766.06,-48.8 963.94,-48.8 963.94,-84.8"/>
<text text-anchor="middle" x="865" y="-62.6" font-family="Times,serif" font-size="14.00">DbManagerManagerComponent</text>
</g>
<!-- DbManagerModule -->
<g id="node5" class="node">
<title>DbManagerModule</title>
<polygon fill="#8dd3c7" stroke="black" points="587.41,-149.8 584.41,-153.8 563.41,-153.8 560.41,-149.8 460.59,-149.8 460.59,-113.8 587.41,-113.8 587.41,-149.8"/>
<text text-anchor="middle" x="524" y="-127.6" font-family="Times,serif" font-size="14.00">DbManagerModule</text>
</g>
<!-- DbManagerManagerComponent&#45;&gt;DbManagerModule -->
<g id="edge1" class="edge">
<title>DbManagerManagerComponent&#45;&gt;DbManagerModule</title>
<path fill="none" stroke="black" d="M865,-84.91C865,-104.14 865,-131.8 865,-131.8 865,-131.8 597.34,-131.8 597.34,-131.8"/>
<polygon fill="black" stroke="black" points="597.34,-128.3 587.34,-131.8 597.34,-135.3 597.34,-128.3"/>
</g>
<!-- DbUpdateRunnersSportComponent -->
<g id="node2" class="node">
<title>DbUpdateRunnersSportComponent</title>
<polygon fill="#ffffb3" stroke="black" points="747.86,-84.8 532.14,-84.8 532.14,-48.8 747.86,-48.8 747.86,-84.8"/>
<text text-anchor="middle" x="640" y="-62.6" font-family="Times,serif" font-size="14.00">DbUpdateRunnersSportComponent</text>
</g>
<!-- DbUpdateRunnersSportComponent&#45;&gt;DbManagerModule -->
<g id="edge2" class="edge">
<title>DbUpdateRunnersSportComponent&#45;&gt;DbManagerModule</title>
<path fill="none" stroke="black" d="M559.64,-84.91C559.64,-84.91 559.64,-103.79 559.64,-103.79"/>
<polygon fill="black" stroke="black" points="556.14,-103.79 559.64,-113.79 563.14,-103.79 556.14,-103.79"/>
</g>
<!-- DbUpdateRunnersStatsComponent -->
<g id="node3" class="node">
<title>DbUpdateRunnersStatsComponent</title>
<polygon fill="#ffffb3" stroke="black" points="514.24,-84.8 301.76,-84.8 301.76,-48.8 514.24,-48.8 514.24,-84.8"/>
<text text-anchor="middle" x="408" y="-62.6" font-family="Times,serif" font-size="14.00">DbUpdateRunnersStatsComponent</text>
</g>
<!-- DbUpdateRunnersStatsComponent&#45;&gt;DbManagerModule -->
<g id="edge3" class="edge">
<title>DbUpdateRunnersStatsComponent&#45;&gt;DbManagerModule</title>
<path fill="none" stroke="black" d="M487.58,-84.91C487.58,-84.91 487.58,-103.79 487.58,-103.79"/>
<polygon fill="black" stroke="black" points="484.08,-103.79 487.58,-113.79 491.08,-103.79 484.08,-103.79"/>
</g>
<!-- DbUpdateUnderOverCommandComponent -->
<g id="node4" class="node">
<title>DbUpdateUnderOverCommandComponent</title>
<polygon fill="#ffffb3" stroke="black" points="284.16,-84.8 23.84,-84.8 23.84,-48.8 284.16,-48.8 284.16,-84.8"/>
<text text-anchor="middle" x="154" y="-62.6" font-family="Times,serif" font-size="14.00">DbUpdateUnderOverCommandComponent</text>
</g>
<!-- DbUpdateUnderOverCommandComponent&#45;&gt;DbManagerModule -->
<g id="edge4" class="edge">
<title>DbUpdateUnderOverCommandComponent&#45;&gt;DbManagerModule</title>
<path fill="none" stroke="black" d="M154,-84.91C154,-104.14 154,-131.8 154,-131.8 154,-131.8 450.39,-131.8 450.39,-131.8"/>
<polygon fill="black" stroke="black" points="450.39,-135.3 460.39,-131.8 450.39,-128.3 450.39,-135.3"/>
</g>
</g>
</svg>
